<svg xmlns="http://www.w3.org/2000/svg" viewBox="0 0 500 500"><g id="freepik--background-complete--inject-157"><path d="M353.76,252.67s5.08,7.13,6.17,7.32a11.07,11.07,0,0,1,2.16.66l-5.31-8.23Z" style="fill:#ebebeb"></path><path d="M425.71,280.17l-65.24-19.89a1.58,1.58,0,0,1-1.05-2c10.49-36.06,23.42-78.73,27.75-91.21a1.58,1.58,0,0,1,2-1L454.42,186a1.59,1.59,0,0,1,1.05,2L427.69,279.1A1.6,1.6,0,0,1,425.71,280.17Z" style="fill:#e0e0e0"></path><polygon points="425.23 278.49 359.94 259.11 355.77 253.79 383.25 160.19 450.32 182.46 452.72 187.12 425.23 278.49" style="fill:#fff"></polygon><polygon points="425.23 278.49 420.51 271.42 449.47 181.21 452.72 187.12 425.23 278.49" style="fill:#f5f5f5"></polygon><path d="M420.86,273.63l-66.14-20.16a1.6,1.6,0,0,1-1.07-2c10.49-36.07,23.42-78.74,27.76-91.22a1.6,1.6,0,0,1,2-1l66.18,20.18a1.59,1.59,0,0,1,1.06,2l-27.77,91.12A1.61,1.61,0,0,1,420.86,273.63Z" style="fill:#ebebeb"></path><path d="M358.93,254.76c-.05,0,6.27-20.92,14.13-46.68s14.26-46.65,14.32-46.63-6.27,20.91-14.13,46.69S359,254.77,358.93,254.76Z" style="fill:#e0e0e0"></path><path d="M417.94,267.37l-53.25-16.24,25.84-84.76,53.26,16.23Zm-51.28-17.28L416.9,265.4l24.92-81.75-50.24-15.32Z" style="fill:#e0e0e0"></path><rect x="386.76" y="251.35" width="11.62" height="3.26" transform="translate(90.83 -103.48) rotate(16.95)" style="fill:#e0e0e0"></rect><rect x="413.22" y="179.48" width="5.42" height="3.26" transform="translate(70.89 -113.42) rotate(16.95)" style="fill:#e0e0e0"></rect><rect x="388.97" y="193.22" width="40.82" height="14.55" transform="translate(76.26 -110.66) rotate(16.95)" style="fill:#e0e0e0"></rect><rect x="389.44" y="210.9" width="30.06" height="6.13" transform="translate(79.97 -108.64) rotate(16.95)" style="fill:#e0e0e0"></rect><rect x="377.03" y="172.43" width="4.18" height="2.63" transform="translate(67.14 -103.01) rotate(16.95)" style="fill:#e0e0e0"></rect><rect x="375.85" y="176.32" width="4.18" height="2.63" transform="translate(68.23 -102.49) rotate(16.95)" style="fill:#e0e0e0"></rect><rect x="355.62" y="243.7" width="3.87" height="2.63" transform="translate(86.98 -93.61) rotate(16.95)" style="fill:#e0e0e0"></rect><g style="opacity:0.30000000000000004"><rect x="366.74" y="184.87" width="4.18" height="45.29" transform="matrix(0.96, 0.29, -0.29, 0.96, 76.54, -98.53)" style="fill:#e0e0e0"></rect></g><path d="M451.45,185.09s0,.14-.11.41-.2.67-.35,1.19c-.32,1.05-.79,2.6-1.38,4.59-1.21,4-2.95,9.74-5.11,16.85l-16.91,55.6c-1.36,4.46-2.7,8.83-4,13l0,.1-.1,0-46.77-14.3-13.81-4.24-3.71-1.15-1-.3-.33-.11.33.09,1,.29,3.72,1.11,13.83,4.19,46.79,14.22-.13.07c1.28-4.18,2.61-8.55,4-13,6.63-21.7,12.63-41.35,17-55.58l5.17-16.84c.61-2,1.09-3.52,1.42-4.57.16-.52.28-.92.37-1.19S451.45,185.09,451.45,185.09Z" style="fill:#e0e0e0"></path><path d="M165.09,45l24.27,77.27a4.24,4.24,0,0,1-3,5.38L127.54,143,103.38,64.23l55.54-22.18A4.66,4.66,0,0,1,165.09,45Z" style="fill:#FF725E"></path><path d="M186.64,127.69l-.28.08-58.92,15.35,0-.13L103.21,64.15l55.66-22.23a4.8,4.8,0,0,1,6.36,3L189.5,122.2a4.38,4.38,0,0,1-2.86,5.49Z" style="fill:#e0e0e0"></path><polygon points="156.87 42.45 162.8 42.65 187.71 121.94 188.22 123.58 182.46 125.38 156.87 42.45" style="fill:#ebebeb"></polygon><path d="M103.1,64.14s18.11-14.43,53.63-22l25.72,83.34L126.8,141.67Z" style="fill:#fff"></path><path d="M103.1,64.14s0,.12.11.37.19.6.34,1.08c.29,1,.73,2.37,1.3,4.21l4.87,15.88,17.14,56-.08-.05,55.65-16.17-.05.09-1-3.12L156.67,42.18l.07,0a179.38,179.38,0,0,0-23.16,6.54A149.18,149.18,0,0,0,116.68,56a108.82,108.82,0,0,0-10.19,5.81l-1.49,1-1.06.74-.84.62.2-.17c.15-.1.36-.26.63-.47l1.06-.75,1.48-1a106,106,0,0,1,10.18-5.84,148,148,0,0,1,16.9-7.25,178.87,178.87,0,0,1,23.17-6.57h.05l0,.06c6.88,22.26,15.47,50.09,24.77,80.21l1,3.12,0,.07-.07,0-55.66,16.16-.07,0,0-.06c-7-23-12.93-42.37-17.09-56-2.08-6.82-3.71-12.2-4.84-15.88-.55-1.84-1-3.25-1.27-4.21q-.21-.7-.33-1.08C103.13,64.26,103.1,64.14,103.1,64.14Z" style="fill:#e0e0e0"></path><path d="M105.46,63.16c2.05,5.86,8.92,27.34,8.92,27.34L116,85l4.35,2.85-10-29.74-4.14,2.72A2,2,0,0,0,105.46,63.16Z" style="fill:#e0e0e0"></path><path d="M184.15,124.86l-.08-.21c0-.15-.11-.35-.2-.62-.17-.56-.43-1.36-.76-2.4-.65-2.08-1.6-5.09-2.76-8.81-2.31-7.44-5.46-17.74-8.9-29.13l-8.86-29.15-2.71-8.82-.74-2.4c-.08-.28-.14-.48-.19-.63l-.06-.21.08.21c.05.14.11.35.2.62.18.55.43,1.35.76,2.39.66,2.08,1.6,5.09,2.76,8.81,2.32,7.44,5.46,17.75,8.9,29.14l8.86,29.14c1.15,3.72,2.07,6.74,2.72,8.83.31,1,.56,1.84.73,2.4l.19.62Z" style="fill:#e0e0e0"></path><path d="M185.66,124.38s-5.75-18.29-12.77-40.87-12.67-40.9-12.63-40.92S166,60.88,173,83.47,185.7,124.37,185.66,124.38Z" style="fill:#e0e0e0"></path><path d="M39.17,82.21l25.12,80A2.78,2.78,0,0,0,68,163.81L127.54,143c1.42-.53-.33-2.88-.75-4.22L87.23,69.42a2.75,2.75,0,0,0-3.37-1.72L41.24,78.78A2.77,2.77,0,0,0,39.17,82.21Z" style="fill:#e0e0e0"></path><polygon points="47.34 76.8 74.4 160.57 127.17 141.74 103.38 64.23 47.34 76.8" style="fill:#ebebeb"></polygon><path d="M51.73,73.93s30.43-16.13,51.66-9.06l23.78,77.5L78.46,159Z" style="fill:#fff"></path><path d="M51.72,73.3c.2.61,11.12,35.29,26.8,85.05l-.09,0,45.9-15.67,2.81-1,0,.1L103.33,64.25l0,0c-1-.28-1.94-.61-2.92-.8l-.73-.17a5.88,5.88,0,0,0-.73-.14l-1.45-.24a41.14,41.14,0,0,0-5.68-.43c-1.86,0-3.66.07-5.4.2-.87.09-1.73.17-2.57.28l-1.25.17-1.22.19a85.35,85.35,0,0,0-8.94,2c-2.73.74-5.18,1.54-7.38,2.31-4.39,1.55-7.72,3-10,4-1.12.51-2,.92-2.54,1.2l-.86.43.86-.45c.56-.28,1.41-.7,2.53-1.22,2.24-1,5.57-2.49,10-4,2.19-.78,4.65-1.58,7.37-2.33a86,86,0,0,1,9-2c.41-.08.82-.14,1.23-.19l1.25-.18c.84-.11,1.7-.19,2.57-.28,1.75-.13,3.55-.25,5.41-.21a44.9,44.9,0,0,1,5.7.42l1.46.24.73.15.73.16c1,.2,1.94.53,2.93.81h0v0c6.52,21.24,14.79,48.17,23.8,77.49l0,.07-.07,0-2.81,1L78.47,158.43l-.07,0,0-.07C62.79,108.61,51.92,73.91,51.72,73.3Z" style="fill:#e0e0e0"></path><polygon points="41.39 81.42 47.34 76.8 74.4 160.57 66.46 161.23 41.39 81.42" style="fill:#ebebeb"></polygon><path d="M67.82,159s-5.61-17.58-12.43-39.3S43.07,80.34,43.11,80.33s5.6,17.58,12.42,39.3S67.86,159,67.82,159Z" style="fill:#e0e0e0"></path><polygon points="48.7 91.75 46.96 107.02 55.86 114.53 48.7 91.75" style="fill:#f5f5f5"></polygon><path d="M69.5,158s-5.34-16.77-11.85-37.47S45.9,83,45.94,83s5.35,16.76,11.85,37.47S69.54,157.94,69.5,158Z" style="fill:#e0e0e0"></path><path d="M72.2,160.33s-5.64-17.71-12.51-39.57S47.28,81.15,47.32,81.14,53,98.84,59.83,120.71,72.24,160.32,72.2,160.33Z" style="fill:#e0e0e0"></path><path d="M97.7,74.85a7.19,7.19,0,0,1-1.36,0c-.87,0-2.13,0-3.69.06A68.88,68.88,0,0,0,69,80c-1.44.58-2.6,1.09-3.39,1.46a7.77,7.77,0,0,1-1.25.52,6.85,6.85,0,0,1,1.17-.68c.77-.43,1.91-1,3.34-1.61A62.57,62.57,0,0,1,80.49,76a61.68,61.68,0,0,1,12.15-1.36c1.57,0,2.84,0,3.71.09A7.91,7.91,0,0,1,97.7,74.85Z" style="fill:#e0e0e0"></path><path d="M99.7,81.54a6.25,6.25,0,0,1-1.36,0c-.87,0-2.13,0-3.69.06A68.88,68.88,0,0,0,71,86.72c-1.44.59-2.6,1.09-3.39,1.46a7.77,7.77,0,0,1-1.25.52A6.85,6.85,0,0,1,67.5,88c.77-.42,1.91-1,3.35-1.61a61.41,61.41,0,0,1,23.79-5.1c1.57,0,2.84,0,3.71.09A7.72,7.72,0,0,1,99.7,81.54Z" style="fill:#e0e0e0"></path><path d="M101.7,88.24a7.88,7.88,0,0,1-1.35,0c-.88,0-2.14,0-3.7.06a71.3,71.3,0,0,0-12.06,1.49A70.25,70.25,0,0,0,73,93.41c-1.45.59-2.61,1.09-3.4,1.46a6.73,6.73,0,0,1-1.25.52,7.81,7.81,0,0,1,1.17-.68c.77-.42,1.91-1,3.35-1.61A61.41,61.41,0,0,1,96.64,88c1.57,0,2.84,0,3.71.09A6,6,0,0,1,101.7,88.24Z" style="fill:#e0e0e0"></path><path d="M103.71,94.93a8.68,8.68,0,0,1-1.36,0c-.88,0-2.14,0-3.7,0a71.3,71.3,0,0,0-12.06,1.49A70.25,70.25,0,0,0,75,100.1c-1.45.59-2.6,1.09-3.39,1.46a9,9,0,0,1-1.26.53,6.8,6.8,0,0,1,1.18-.69c.76-.42,1.9-1,3.34-1.6a61.18,61.18,0,0,1,23.8-5.11c1.56,0,2.83,0,3.7.09A7.21,7.21,0,0,1,103.71,94.93Z" style="fill:#e0e0e0"></path><path d="M106.32,101.66a8.58,8.58,0,0,1-1.36,0c-.87,0-2.14,0-3.69,0a71.28,71.28,0,0,0-12.07,1.49,70.56,70.56,0,0,0-11.61,3.59c-1.44.59-2.6,1.09-3.39,1.46a6.33,6.33,0,0,1-1.26.52,9.25,9.25,0,0,1,1.18-.68c.77-.42,1.91-1,3.34-1.61a62.33,62.33,0,0,1,11.65-3.74,61.68,61.68,0,0,1,12.15-1.36c1.57,0,2.83,0,3.71.09A6.24,6.24,0,0,1,106.32,101.66Z" style="fill:#e0e0e0"></path><path d="M110.41,110a9.42,9.42,0,0,1-1.43,0c-.46,0-1,0-1.67,0s-1.39,0-2.21.07c-1.63.06-3.57.24-5.72.48s-4.5.65-6.94,1.17-4.74,1.15-6.81,1.78-3.9,1.29-5.42,1.91c-.76.29-1.44.59-2,.84s-1.11.48-1.53.68a7.23,7.23,0,0,1-1.32.54,10.15,10.15,0,0,1,1.24-.71c.41-.22.91-.47,1.5-.74s1.26-.61,2-.92c1.5-.66,3.35-1.33,5.41-2s4.39-1.3,6.84-1.83,4.83-.89,7-1.14,4.12-.37,5.76-.38c.83,0,1.57,0,2.22,0s1.22,0,1.68.07A8.63,8.63,0,0,1,110.41,110Z" style="fill:#e0e0e0"></path><path d="M113.05,118.07a7.24,7.24,0,0,1-1.43.13c-.92,0-2.25.14-3.89.3a84.91,84.91,0,0,0-12.64,2.34c-4.86,1.26-9.18,2.73-12.3,3.79l-3.71,1.26a6.67,6.67,0,0,1-1.38.4,8.8,8.8,0,0,1,1.32-.57c.86-.35,2.1-.83,3.65-1.4,3.1-1.14,7.42-2.66,12.31-3.94a74,74,0,0,1,12.72-2.21c1.65-.11,3-.17,3.92-.15A8.46,8.46,0,0,1,113.05,118.07Z" style="fill:#e0e0e0"></path><path d="M114.59,126.85a9.09,9.09,0,0,1-1.4.23c-.9.12-2.21.29-3.81.57A106.52,106.52,0,0,0,97,130.57c-4.75,1.42-9,3-12,4.25-1.5.61-2.72,1.13-3.55,1.49a8.78,8.78,0,0,1-1.32.52,8.44,8.44,0,0,1,1.24-.68c.82-.42,2-1,3.51-1.64a104.12,104.12,0,0,1,12-4.38,88.24,88.24,0,0,1,12.44-2.81c1.61-.24,2.93-.36,3.84-.42A8.94,8.94,0,0,1,114.59,126.85Z" style="fill:#e0e0e0"></path><path d="M149.55,55.76a11.1,11.1,0,0,1-1.55.46c-1,.27-2.45.67-4.23,1.18a144.9,144.9,0,0,0-13.71,4.73c-5.25,2.12-9.87,4.36-13.15,6.09-1.65.86-3,1.58-3.88,2.08a9.16,9.16,0,0,1-1.44.74,1.54,1.54,0,0,1,.34-.25l1-.64c.88-.56,2.18-1.32,3.81-2.22a120.1,120.1,0,0,1,13.14-6.24,122.35,122.35,0,0,1,13.79-4.61c1.8-.47,3.26-.83,4.28-1l1.18-.23C149.41,55.76,149.55,55.74,149.55,55.76Z" style="fill:#e0e0e0"></path><path d="M156.53,69.46a1.34,1.34,0,0,1-.41.17l-1.19.4-4.37,1.42c-3.7,1.21-8.77,3-14.29,5.13s-10.44,4.32-14,5.94l-4.18,1.93L117,85a1.66,1.66,0,0,1-.41.16s.12-.1.37-.24l1.1-.6c1-.51,2.37-1.22,4.12-2.06,3.51-1.7,8.42-3.91,13.95-6.08s10.63-3.87,14.36-5c1.86-.56,3.37-1,4.42-1.28l1.22-.31A2.54,2.54,0,0,1,156.53,69.46Z" style="fill:#e0e0e0"></path><path d="M158.43,77.33a2.42,2.42,0,0,1-.42.17l-1.2.42-4.45,1.47c-3.76,1.23-8.93,3-14.61,5s-10.77,4-14.45,5.48l-4.36,1.71-1.19.46a1.9,1.9,0,0,1-.43.13s.13-.09.39-.22l1.16-.53c1-.46,2.48-1.1,4.3-1.86,3.65-1.53,8.74-3.55,14.42-5.61s10.88-3.75,14.67-4.91c1.89-.58,3.43-1,4.5-1.33l1.23-.33A1.3,1.3,0,0,1,158.43,77.33Z" style="fill:#e0e0e0"></path><path d="M161.49,86c0,.12-9.22,3.33-20.68,7.15S120,100,120,99.82s9.21-3.32,20.68-7.15S161.45,85.84,161.49,86Z" style="fill:#e0e0e0"></path><path d="M165.37,94.32c0,.12-9.22,3.24-20.68,7s-20.8,6.65-20.84,6.52,9.23-3.24,20.69-7S165.33,94.2,165.37,94.32Z" style="fill:#e0e0e0"></path><path d="M168.34,103.58c0,.13-9.32,2.94-20.89,6.29s-21,6-21,5.84,9.31-2.94,20.88-6.29S168.3,103.46,168.34,103.58Z" style="fill:#e0e0e0"></path><path d="M168.92,113c0,.12-8.21,2.68-18.41,5.71S132,124.11,132,124s8.2-2.69,18.41-5.72S168.88,112.88,168.92,113Z" style="fill:#e0e0e0"></path><path d="M154.21,62.56a1.54,1.54,0,0,1-.4.16l-1.17.36-4.28,1.3c-3.61,1.12-8.56,2.79-13.91,4.93s-10.08,4.34-13.47,6l-4,2-1.09.54a1.91,1.91,0,0,1-.4.17,1.75,1.75,0,0,1,.35-.25l1-.62c.92-.53,2.26-1.27,3.94-2.15,3.35-1.75,8.08-4,13.45-6.16s10.35-3.77,14-4.81c1.82-.52,3.3-.92,4.33-1.16l1.18-.27A1.91,1.91,0,0,1,154.21,62.56Z" style="fill:#e0e0e0"></path><path d="M85.87,298.42a18.19,18.19,0,0,1,4.47-1.94l.92-4.42,7.46-.13,1.08,4.38a18.64,18.64,0,0,1,4.53,1.78l3.77-2.47,5.37,5.19-2.34,3.85a18.41,18.41,0,0,1,1.94,4.47l4.42.92.13,7.46-4.38,1.08a18.57,18.57,0,0,1-1.78,4.52l2.47,3.78-5.19,5.37-3.85-2.34a18.58,18.58,0,0,1-4.47,1.94l-.92,4.42-7.46.13L91,332a18.27,18.27,0,0,1-4.53-1.79l-3.77,2.48-5.37-5.19,2.34-3.86a18,18,0,0,1-1.94-4.46l-4.42-.92-.13-7.46,4.38-1.08a18.64,18.64,0,0,1,1.78-4.53l-2.47-3.77L82,296.08l3.85,2.34Zm4,9.94a8,8,0,1,0,11.33-.2A8,8,0,0,0,89.85,308.36Z" style="fill:#ebebeb"></path><path d="M197.51,30.3a14.59,14.59,0,0,1,3.61-1.57l.75-3.58,6-.11.87,3.55A14.74,14.74,0,0,1,212.45,30l3.05-2,4.35,4.2L218,35.35A15,15,0,0,1,219.53,39l3.57.74.11,6-3.55.87a14.67,14.67,0,0,1-1.44,3.66l2,3.06L216,57.69,212.9,55.8a14.59,14.59,0,0,1-3.61,1.57L208.54,61l-6,.11-.87-3.55A15.17,15.17,0,0,1,198,56.06l-3.05,2-4.35-4.2,1.89-3.12a15,15,0,0,1-1.57-3.62l-3.57-.74-.11-6,3.55-.87a14.67,14.67,0,0,1,1.44-3.66l-2-3.06,4.2-4.35,3.12,1.9Zm3.22,8.05a6.49,6.49,0,1,0,9.17-.16A6.49,6.49,0,0,0,200.73,38.35Z" style="fill:#ebebeb"></path><path d="M423.84,108.24a18.34,18.34,0,0,1,4.46-1.94l.92-4.42,7.47-.13,1.07,4.38a18.27,18.27,0,0,1,4.53,1.79l3.77-2.48,5.37,5.19-2.33,3.85A18.16,18.16,0,0,1,451,119l4.42.92.13,7.46-4.38,1.08a18.24,18.24,0,0,1-1.78,4.53l2.47,3.77-5.18,5.37-3.86-2.34a18,18,0,0,1-4.46,1.94l-.92,4.42-7.47.13-1.07-4.38a18.48,18.48,0,0,1-4.53-1.78l-3.78,2.47-5.37-5.19,2.34-3.85a18.41,18.41,0,0,1-1.94-4.47l-4.42-.92-.13-7.46,4.39-1.08a18.17,18.17,0,0,1,1.78-4.52l-2.48-3.78L420,105.9l3.86,2.34Zm4,9.94a8,8,0,1,0,11.32-.2A8,8,0,0,0,427.82,118.18Z" style="fill:#e0e0e0"></path><path d="M415.15,60.87a10.7,10.7,0,0,1,2.67-1.16l.55-2.65,4.47-.08.64,2.63a11,11,0,0,1,2.72,1.06l2.26-1.48,3.21,3.11-1.4,2.31a10.7,10.7,0,0,1,1.16,2.67l2.65.55.08,4.47-2.63.65a11,11,0,0,1-1.06,2.71L432,77.92l-3.11,3.22-2.31-1.4a11.08,11.08,0,0,1-2.67,1.16l-.55,2.64-4.47.08L418.19,81a11,11,0,0,1-2.71-1.07l-2.26,1.48L410,78.31l1.4-2.31a11,11,0,0,1-1.17-2.68l-2.64-.55-.08-4.47,2.62-.64a11.48,11.48,0,0,1,1.07-2.72l-1.48-2.25,3.11-3.22,2.31,1.4Zm2.38,5.95a4.8,4.8,0,1,0,6.78-.11A4.8,4.8,0,0,0,417.53,66.82Z" style="fill:#f5f5f5"></path><path d="M47.34,293.39A11.12,11.12,0,0,1,50,292.22l.55-2.64L55,289.5l.65,2.63a11,11,0,0,1,2.71,1.06l2.26-1.48,3.21,3.11-1.4,2.31a10.73,10.73,0,0,1,1.17,2.67l2.64.55.08,4.47-2.62.65a11.58,11.58,0,0,1-1.07,2.71l1.48,2.26L61,313.65l-2.31-1.4a11.12,11.12,0,0,1-2.67,1.17l-.55,2.64-4.47.08-.64-2.63a11,11,0,0,1-2.72-1.06l-2.26,1.48-3.21-3.11,1.4-2.31a10.7,10.7,0,0,1-1.16-2.67l-2.65-.55-.08-4.47,2.63-.65a11.13,11.13,0,0,1,1.06-2.71l-1.48-2.26L45,292l2.31,1.4Zm2.38,5.95a4.8,4.8,0,1,0,6.78-.12A4.79,4.79,0,0,0,49.72,299.34Z" style="fill:#f5f5f5"></path></g><g id="freepik--Floor--inject-157"><path d="M481.69,464.1c0,.15-104.48.26-233.35.26S15,464.25,15,464.1s104.47-.26,233.37-.26S481.69,464,481.69,464.1Z" style="fill:#263238"></path></g><g id="freepik--Exam--inject-157"><rect x="126.31" y="65.43" width="239.2" height="352.34" transform="translate(-18.57 20.49) rotate(-4.6)" style="fill:#fff"></rect><path d="M379.25,407.62c-.17-2.12-11.69-144.17-28.48-351.19l.26.22L112.62,75.84h0l.24-.28c10.6,132.18,20.4,254.18,28.18,351.22l-.22-.2,238.45-19L140.83,427l-.21,0v-.21c-7.82-97-17.65-219-28.29-351.21l0-.26.25,0h0L351,56.17l.24,0,0,.24C367.76,263.43,379.08,405.5,379.25,407.62Z" style="fill:#263238"></path><rect x="140.8" y="129.77" width="192.59" height="4.38" transform="translate(-9.81 19.43) rotate(-4.6)" style="fill:#e0e0e0"></rect><rect x="141.72" y="143.08" width="96.74" height="4.38" transform="translate(-11.03 15.7) rotate(-4.6)" style="fill:#e0e0e0"></rect><rect x="160.58" y="157.99" width="159.48" height="4.38" transform="translate(-12.07 19.78) rotate(-4.6)" style="fill:#e0e0e0"></rect><rect x="162.42" y="183.13" width="49.23" height="4.38" transform="translate(-14.25 15.59) rotate(-4.6)" style="fill:#e0e0e0"></rect><path d="M144.24,174.64l-1-12.2,12.2-1,1,12.2Zm.1-11.28.82,10.2,10.2-.82-.82-10.2Z" style="fill:#e0e0e0"></path><path d="M145.91,195.4l-1-12.2,12.2-1,1,12.2Zm.1-11.28.82,10.2,10.2-.82-.82-10.2Z" style="fill:#e0e0e0"></path><rect x="163.93" y="200.74" width="108.69" height="4.38" transform="translate(-15.56 18.15) rotate(-4.6)" style="fill:#e0e0e0"></rect><path d="M147.52,215.39l-1-12.19,12.19-1,1,12.19Zm.1-11.28.82,10.2,10.2-.82-.82-10.2Z" style="fill:#e0e0e0"></path><rect x="148.13" y="220.88" width="192.59" height="4.38" transform="translate(-17.09 20.31) rotate(-4.6)" style="fill:#e0e0e0"></rect><rect x="149.04" y="234.19" width="96.74" height="4.38" transform="translate(-18.31 16.58) rotate(-4.6)" style="fill:#e0e0e0"></rect><rect x="167.9" y="249.1" width="159.48" height="4.38" transform="translate(-19.34 20.66) rotate(-4.6)" style="fill:#e0e0e0"></rect><rect x="169.75" y="274.24" width="49.23" height="4.38" transform="translate(-21.53 16.47) rotate(-4.6)" style="fill:#e0e0e0"></rect><path d="M151.57,265.75l-1-12.19,12.19-1,1,12.19Zm.1-11.28.82,10.2,10.2-.82-.82-10.2Z" style="fill:#e0e0e0"></path><path d="M153.24,286.51l-1-12.19,12.19-1,1,12.19Zm.1-11.28.82,10.2,10.2-.82-.82-10.2Z" style="fill:#e0e0e0"></path><rect x="171.26" y="291.85" width="108.69" height="4.38" transform="translate(-22.84 19.03) rotate(-4.6)" style="fill:#e0e0e0"></rect><path d="M154.85,306.5l-1-12.19,12.19-1,1,12.19Zm.09-11.27.82,10.2,10.2-.82-.82-10.2Z" style="fill:#e0e0e0"></path><rect x="155.45" y="311.98" width="192.59" height="4.38" transform="translate(-24.37 21.19) rotate(-4.6)" style="fill:#e0e0e0"></rect><rect x="156.37" y="325.28" width="96.74" height="4.38" transform="translate(-25.59 17.46) rotate(-4.6)" style="fill:#e0e0e0"></rect><rect x="175.23" y="340.19" width="159.48" height="4.38" transform="translate(-26.62 21.54) rotate(-4.6)" style="fill:#e0e0e0"></rect><rect x="177.07" y="365.33" width="49.23" height="4.38" transform="translate(-28.81 17.35) rotate(-4.6)" style="fill:#e0e0e0"></rect><path d="M158.89,356.84l-1-12.19,12.2-1,1,12.19Zm.1-11.27.82,10.2L170,355l-.82-10.2Z" style="fill:#e0e0e0"></path><path d="M160.56,377.6l-1-12.19,12.2-1,1,12.19Zm.1-11.27.82,10.2,10.2-.82-.82-10.2Z" style="fill:#e0e0e0"></path><rect x="178.59" y="382.94" width="108.69" height="4.38" transform="translate(-30.12 19.91) rotate(-4.6)" style="fill:#e0e0e0"></rect><path d="M162.17,397.6l-1-12.19,12.19-1,1,12.19Zm.1-11.28.82,10.2,10.2-.82-.82-10.2Z" style="fill:#e0e0e0"></path><path d="M207.58,111.45l.37,4.6-16.9,1.36-1.69-21L205.86,95l.37,4.6-10.61.85.28,3.55,9.36-.75.35,4.45-9.35.75.31,3.85Z" style="fill:#FF725E"></path><path d="M224.37,114.73l-4.89-6.18-3.77,6.87-6.8.55,6.81-11.26-8.17-9.82,6.7-.54,4.7,5.74,3.66-6.41,6.44-.52-6.52,10.76,8.69,10.26Z" style="fill:#FF725E"></path><path d="M245.87,108.88l-8.9.72-1.33,4.22-6.07.49,7.6-21.8L243,92l11,20.3-6.2.5Zm-2.1-4.25-3.25-6.52-2.16,7Z" style="fill:#FF725E"></path><path d="M274.73,110.68l-1-11.15L269.1,109l-2.65.21-6.09-8.34.87,10.85-5.5.44-1.69-21,4.9-.4,8.37,11.55,6.24-12.72,4.91-.4,1.75,21Z" style="fill:#FF725E"></path></g><g id="freepik--Globe--inject-157"><path d="M470.53,353.44c0,34.88-25.45,66.86-67.43,66.86a67,67,0,0,1,0-133.94C440.09,286.36,470.53,316.45,470.53,353.44Z" style="fill:#455a64"></path><g style="opacity:0.2"><path d="M445.14,389.06c-1.08.15-2.37-.38-3.19.34a3.46,3.46,0,0,0-.78,1.7,3.68,3.68,0,0,1-1.54,2.08,2.33,2.33,0,0,1-2.51,0,1.67,1.67,0,0,1-.35-2.33c.27-.3.65-.48.94-.76,1.44-1.35.45-3.85,1.55-5.45.65-.94,1.66-1.9,2.38-2.86.54-.74.74-1.32,1.75-1.52C447.78,379.37,449.77,388.42,445.14,389.06Z"></path></g><g style="opacity:0.30000000000000004"><path d="M365.62,408.82c.57.38,1.14.75,1.72,1.1.41.26.81.5,1.23.74-.42-.24-.82-.48-1.23-.74C366.76,409.57,366.19,409.2,365.62,408.82Z" style="fill:#263238"></path></g><g style="opacity:0.30000000000000004"><path d="M470.51,352.52c0-1,0-1.91-.08-2.86.05.95.08,1.9.08,2.86,0,.31,0,.62,0,.92,0,1.48,0,2.93-.14,4.39.09-1.46.14-2.91.14-4.39C470.53,353.14,470.53,352.83,470.51,352.52Z" style="fill:#263238"></path></g><g style="opacity:0.30000000000000004"><path d="M466.3,330.15q.48,1.28.9,2.55-.42-1.27-.9-2.55s0,0,0,0h0Z" style="fill:#263238"></path></g><g style="opacity:0.2"><path d="M444.8,367.06c2.66-2.27,3.73-7.42.42-8.61-1.25-.45-2.69-.09-3.93-.56-1.62-.62-2.37-2.42-3-4l-4.6-12.73c-.93-2.56-2.33-5.52-5.05-5.9-1.54-.21-3,.51-4.57.79-5.27.95-14.13-11.66-18.13-3.18-.56-2.3-4.35-1.44-5.57.61s-1.46,4.77-3.38,6.19c-1.47,1.08-3.61,1.15-4.81,2.52a6,6,0,0,0-1.09,3.59c-.21,2.43-.41,4.85-.61,7.28-.17,2-.3,4.05.68,5.76s3.53,2.65,5,1.33a15.24,15.24,0,0,0,1.51-2.25,3.83,3.83,0,0,1,3.93-1.34,6.57,6.57,0,0,1,3,2.08c6.86,7.31,9.31,17.7,9.62,27.67a15.49,15.49,0,0,0,.73,5.39c.8,2,2.47,3.6,3,5.68.38,1.6,0,3.36.72,4.85,1.28,2.74,5.54,2.86,7.86.89s3.13-5.14,3.6-8.13.77-6.13,2.46-8.65c1.05-1.57,2.6-2.82,3.33-4.55,1-2.41.26-5.28,1.22-7.73C438.4,370.78,442.13,369.34,444.8,367.06Z"></path></g><g style="opacity:0.2"><path d="M362.23,406.12h0c.69.53,1.38,1,2.08,1.54s1.12.78,1.69,1.16,1.13.75,1.72,1.1c.4.26.81.5,1.22.74-.05-.11-.1-.22-.16-.33-1.48-3.22-1.57-7.87,1.62-9.46a6.92,6.92,0,0,0,1.81-.94c1.42-1.33.25-4.07,1.67-5.4.8-.74,2.05-.69,3-1.13,1.78-.81,2.36-3.07,2.22-5s-.79-3.85-.56-5.78c.35-2.93,2.65-5.89,1.33-8.53-1.48-2.94-5.8-2.47-8.84-3.79-4.25-1.84-5.56-7.06-8.34-10.74-2.48-3.29-8.28-6.91-12.7-5.92a5.35,5.35,0,0,0-4.63,4.93l-.4-.06c-1.19-.13-2.57-.19-3.23-1.16-.75-1.13,0-2.81-.78-3.92a6.21,6.21,0,0,0-1.69-1.24c-.58-.41-1.07-1.17-.71-1.78s1-.62,1.4-1.09a1.07,1.07,0,0,0,0-1.32c-1.21-1.43-2.57,1.47-3.24,2.16a6.14,6.14,0,0,1-.54.51h0a2.22,2.22,0,0,0,0,.37c0,.39,0,.8,0,1.2s0,.8,0,1.2,0,.65,0,1,0,.65,0,1c0,.16,0,.31,0,.47A65.78,65.78,0,0,0,340.46,377a63.37,63.37,0,0,0,4.12,8.74c.66,1.21,1.39,2.41,2.14,3.58.94,1.44,1.92,2.86,3,4.22s2,2.58,3.12,3.81c1.51,1.7,3.1,3.31,4.77,4.85,1.49,1.37,3,2.67,4.64,3.91"></path></g><g style="opacity:0.2"><path d="M340.4,333.54c1.25-1.06,3.43-1.19,4.4.14a4.58,4.58,0,0,1,.35,3.41c-.24,1.56-.49,3.12-.74,4.68a2.41,2.41,0,0,0,.06,1.41c.47,1,2.11.8,2.74-.09a4.27,4.27,0,0,0,.4-3.17,5.94,5.94,0,0,1,0-3.24c1.06-2.51,4.85-2.13,7.05-3.77,1.36-1,2-2.71,2.78-4.2s2.17-3,3.87-2.9c.58,0,1.15.23,1.72.21a2.26,2.26,0,0,0,1.47-3.67,4.09,4.09,0,0,1-.74-.76,1.38,1.38,0,0,1,.53-1.66,4.06,4.06,0,0,1,1.79-.57l4.32-.67c1.59-.24,3.63-1.06,3.41-2.63-.2-1.36-2.06-2-2.34-3.32a4,4,0,0,0-.18-1c-.44-.87-1.75-.52-2.59-.06a2.1,2.1,0,0,0-3.17-1c-.86.7-1,1.92-1.26,3-.7,2.53-2.74,4.45-4.68,6.23a4,4,0,0,1-2.28,1.27c-.88,0-1.81-.9-1.4-1.67.27-.53,1-.83,1-1.42s-1.41-.69-1.67-1.4c.52-2.09,2.94-2.95,4.79-4.07a11.52,11.52,0,0,0,4.9-6,1.48,1.48,0,0,0,.06-1.23c-.27-.52-1-.61-1.6-.61-1.43,0-3.21.17-3.73,1.49a15.19,15.19,0,0,0-.25,2.25c-.5,2.19-3.54,2.44-5.39,3.74a16.86,16.86,0,0,1-2.09,1.61,7.94,7.94,0,0,1-2.84.45l-.51,0c-.59.81-1.16,1.63-1.7,2.47s-1.07,1.69-1.58,2.55a65.24,65.24,0,0,0-5.84,12.89q-.79,2.37-1.39,4.81c-.4,1.63-.74,3.28-1,4.95a18.38,18.38,0,0,0,1.21-4.2A7.68,7.68,0,0,1,340.4,333.54Z"></path></g><g style="opacity:0.2"><path d="M396.52,301.19c.64-.82.45-2,.87-3,.68-1.58,2.82-2.15,3.56-3.72.28-.6.35-1.33.85-1.78s1-.45,1.47-.79c1-.75.58-2.46-.47-3.13-2.65-1.67-7.51.26-9.8,1.9-2.94,2.1-5.81,4.63-9.72,4.38a7.66,7.66,0,0,0-3.2,0c-1,.38-1.63,1.87-.77,2.51.49.35,1.17.25,1.72.5,1,.46,1.11,1.91.61,2.89s-1.37,1.72-1.95,2.66a5,5,0,0,0-.73,3,2.76,2.76,0,0,0,.92,2c1.21,1,3.06.14,4.09-1s1.74-2.65,3.08-3.44a7.77,7.77,0,0,1,2.19-.75l5.09-1.2A3.66,3.66,0,0,0,396.52,301.19Z"></path></g><g style="opacity:0.2"><path d="M470.53,352.8c0-1,0-1.91-.08-2.86s-.13-1.89-.23-2.83c-.07-.76-.16-1.51-.26-2.26s-.23-1.58-.36-2.36a66.13,66.13,0,0,0-1.57-6.92c-.25-.87-.52-1.74-.81-2.59s-.58-1.71-.9-2.55h0c-.34-.64-.7-1.26-1.1-1.87-3.74-5.87-9.18-10.47-13.3-16.08-1.35-1.83-2.39-3.33-4.77-3.69-3.52-.54-5.3,1.44-7.8-1.86-.67-.89-1.84-1.71-2.83-1.18.25.7.52,1.41.77,2.13a1,1,0,0,1,.09.46c-.05.5-.8.64-1.23.36a4.42,4.42,0,0,1-.94-1.19,3.47,3.47,0,0,0-5.06-.41,1.92,1.92,0,0,0-1.12-1.56,2.31,2.31,0,0,1-2.9,1.84c-.21-.64,1-.76,1.36-1.31s-.07-1.23-.55-1.66a7.5,7.5,0,0,0-4.64-1.79c-1.08,0-2.24.18-3.18-.36-.55-.32-.93-.85-1.48-1.15-1.19-.67-2.67-.06-3.87.6-1.63.89-3.31,2-3.89,3.78s.71,4.13,2.56,3.91a3.66,3.66,0,0,1,1.42-.16,1.69,1.69,0,0,1,1,1.61,4.85,4.85,0,0,0,.31,2c.32.59,1.29.88,1.67.33.87-.83.76-2.21.54-3.38s-.46-2.49.25-3.45,2.74-.66,2.6.53c-.09.69-.89,1.2-.86,1.91s.92,1.09,1.65,1.06a7.87,7.87,0,0,1,2.16-.1c.72.16,1.28,1.08.77,1.6-.88,1-3.19-.71-3.65.53a3.76,3.76,0,0,0,0,1c-.08,1-1.4,1.41-2.44,1.54a5.83,5.83,0,0,1-3.11-.22,1.93,1.93,0,0,1-1.05-2.56,1.19,1.19,0,0,0-1.63.59,3.29,3.29,0,0,0-.12,1.92c-1.11-.25-2.1.68-2.73,1.6s-1.25,2-2.33,2.33-2.58-.11-3.14.86c-.74,1.26,1.39,2.87.65,4.12-.43.71-1.45.69-2.26.91-2.15.6-2.9,3.7-1.43,5.36a4.23,4.23,0,0,0,5.93,0c1.07-1.09,1.51-2.62,2.29-3.93s2.25-2.48,3.72-2.05a4.52,4.52,0,0,1,1.53.95L416.3,326c.46.38,1,.85.92,1.44s-.42.85-.58,1.29c-.44,1.28,1.42,2.49,2.6,1.8a2.54,2.54,0,0,0,.5-3.58c-1.11-1.52-3.62-2.28-3.55-4.16,1.28-1,3.29.05,4,1.52s.77,3.19,1.4,4.7,2.38,2.86,3.86,2.12c-.39-1.31-.76-2.61-1.14-3.91.93-.69,2,1.33,3.13,1,.68-.21.77-1.18.47-1.83a9.19,9.19,0,0,1-.95-1.91,2.19,2.19,0,0,1,2.55-2.23,3.33,3.33,0,0,1,2.5,2.73,5.45,5.45,0,0,0,.34,1.5c.49,1,1.76,1.32,2.8,1.74s2.15,1.47,1.71,2.51c-.2.45-.68.88-.51,1.35s.78.59.78,1-.32.5-.6.61c-.7.29-1.47.38-2.16.71a1.92,1.92,0,0,0-1.24,1.71c.08,1.05,1.35,1.56,1.95,2.44s.49,1.94.85,2.89a10.66,10.66,0,0,0,1.61,2.31c1.77,2.38,2.19,5.45,3.05,8.28.39,1.28,1.09,2.7,2.41,2.94a4,4,0,0,0,2.14-.41,12.85,12.85,0,0,0,5.22-3.08c1.35-1.54,1.8-4,.42-5.55a1.06,1.06,0,0,0-.65-.41,2,2,0,0,0-1,.35,2.91,2.91,0,0,1-3-.63,8.35,8.35,0,0,1-1.77-2.63l-1.58-3.16a1.9,1.9,0,0,1,2.28.21,12.42,12.42,0,0,1,1.56,1.9c1.59,2,4.2,2.83,6.73,3.13a6.19,6.19,0,0,1,1.9.39c1.89.85,2.43,3.61,4.43,4.2a11.83,11.83,0,0,1,1.69.38,3.06,3.06,0,0,1,1.42,2.09,33.69,33.69,0,0,0,1.25,4.66,4.34,4.34,0,0,0,3.61,2.84,4,4,0,0,0,2.71-1.19h0c.08-1.46.13-2.92.13-4.39C470.55,353.41,470.55,353.1,470.53,352.8Z"></path></g><rect x="398.81" y="424.97" width="8.66" height="33.55" style="fill:#263238"></rect><path d="M403.14,426.91c-41.49,0-75.24-33.4-75.24-74.44a74.43,74.43,0,0,1,38.75-65.12l.84-.46,5,6.88-2.13,1.14-3.46-5.21a72.26,72.26,0,0,0-36.81,62.77c0,39.85,32.79,72.28,73.09,72.28a73.7,73.7,0,0,0,45.87-16l-2.87-2.84,1.76-1.48,3.53,3.64a1.08,1.08,0,0,1-.09,1.57l0,0A75.81,75.81,0,0,1,403.14,426.91Z" style="fill:#263238"></path><rect x="370.01" y="458.53" width="66.65" height="5.15" style="fill:#263238"></rect><path d="M470.53,353.44s0-.37,0-1.09,0-1.79-.16-3.19a66.35,66.35,0,0,0-9.48-29.93,68.17,68.17,0,0,0-17.11-19,66.5,66.5,0,0,0-12.81-7.62,65.53,65.53,0,0,0-15.4-4.87,66.72,66.72,0,0,0-34.7,128.44A69.82,69.82,0,0,0,416,419a67.7,67.7,0,0,0,15.5-4.54,64,64,0,0,0,12.89-7.49,63.08,63.08,0,0,0,16.89-19.12,70,70,0,0,0,4.54-9.51,73.91,73.91,0,0,0,2.63-8.46,69.19,69.19,0,0,0,1.84-12.13c.13-1.4.1-2.47.15-3.19s0-1.09,0-1.09.06,1.48-.08,4.29a67.68,67.68,0,0,1-1.74,12.17,73.8,73.8,0,0,1-2.59,8.51A70.32,70.32,0,0,1,461.6,388a63.42,63.42,0,0,1-16.93,19.29,64.18,64.18,0,0,1-12.95,7.56,67.61,67.61,0,0,1-15.6,4.6,70.1,70.1,0,0,1-35.47-2.72,67.22,67.22,0,0,1,35-129.41A67.63,67.63,0,0,1,444,299.94a68.47,68.47,0,0,1,17.15,19.12A67.16,67.16,0,0,1,468.58,337a65.35,65.35,0,0,1,1.86,12.15C470.58,352,470.53,353.44,470.53,353.44Z" style="fill:#263238"></path></g><g id="freepik--Books--inject-157"><rect x="44.66" y="428.23" width="261.75" height="36.52" style="fill:#FF725E"></rect><rect x="44.66" y="432.79" width="257.49" height="27.25" style="fill:#f5f5f5"></rect><path d="M302.14,438.75l-.66,0h-2l-7.51,0-27.62.06-91.12.06-91.14-.06-27.62-.06-7.51,0h-2l-.67,0s.23,0,.67,0l2,0,7.51,0,27.62-.06,91.14-.06,91.12.06,27.62.06,7.51,0,2,0C301.92,438.73,302.14,438.75,302.14,438.75Z" style="fill:#263238"></path><path d="M302.14,446s-.22,0-.66,0l-2,0-7.51,0-27.62.06-91.12.05-91.14-.05-27.62-.06-7.51,0-2,0c-.44,0-.67,0-.67,0l.67,0,2,0,7.51,0,27.62-.06,91.14-.06,91.12.06L292,446l7.51,0,2,0Z" style="fill:#263238"></path><path d="M302.14,453.32l-.66,0-2,0-7.51,0-27.62.07-91.12.05-91.14-.05-27.62-.07-7.51,0-2,0-.67,0,.67,0,2,0,7.51,0,27.62-.06,91.14-.05,91.12.05,27.62.06,7.51,0,2,0Z" style="fill:#263238"></path><rect x="79.48" y="354.73" width="211.74" height="26.44" style="fill:#FF725E"></rect><path d="M244.48,376a1.11,1.11,0,0,1,0-.3c0-.23,0-.51,0-.85,0-.77,0-1.82,0-3.13,0-2.7-.06-6.44-.09-10.84l.18.17-10,0,.19-.19h0V365c0,1.36,0,2.68,0,4,0,2.54,0,4.89,0,7l-.15-.15,7.26.08,2,0,.74,0a5.67,5.67,0,0,1-.68,0l-2,0-7.35.08h-.15V376c0-2.09,0-4.44,0-7,0-1.28,0-2.6,0-4v-4.17h0l.19-.19h10.2v.18c0,4.44-.06,8.23-.08,11,0,1.29,0,2.33,0,3.09,0,.32,0,.59,0,.81S244.48,376,244.48,376Z" style="fill:#263238"></path><rect x="258.57" y="358.87" width="32.66" height="17.88" style="fill:#fff"></rect><rect x="254.26" y="354.73" width="36.96" height="26.44" style="opacity:0.30000000000000004"></rect><path d="M254.1,381c-.1,0-.19-5.84-.19-13s.09-13,.19-13,.2,5.84.2,13S254.21,381,254.1,381Z" style="fill:#263238"></path><path d="M291.47,363.1c0,.11-7.42.19-16.57.19s-16.58-.08-16.58-.19,7.42-.19,16.58-.19S291.47,363,291.47,363.1Z" style="fill:#263238"></path><path d="M291.47,367.81c0,.11-7.42.19-16.57.19s-16.58-.08-16.58-.19,7.42-.19,16.58-.19S291.47,367.71,291.47,367.81Z" style="fill:#263238"></path><path d="M291.47,372.58c0,.11-7.42.2-16.57.2s-16.58-.09-16.58-.2,7.42-.19,16.58-.19S291.47,372.48,291.47,372.58Z" style="fill:#263238"></path><rect x="58.58" y="381.46" width="211.74" height="13.05" style="fill:#FF725E"></rect><rect x="222.99" y="383.09" width="47.34" height="9.88" style="fill:#e0e0e0"></rect><rect x="220.31" y="381.46" width="50.01" height="13.05" style="opacity:0.30000000000000004"></rect><path d="M220.31,394.5a53.43,53.43,0,0,1-.17-6.27,50.59,50.59,0,0,1,.21-6.28,53.54,53.54,0,0,1,.17,6.28A50.49,50.49,0,0,1,220.31,394.5Z" style="fill:#263238"></path><rect x="73.8" y="386.49" width="127.53" height="3.12" style="fill:#e0e0e0"></rect><path d="M215.16,394.4c0,.11-35.09.19-78.36.19s-78.38-.08-78.38-.19,35.09-.19,78.38-.19S215.16,394.3,215.16,394.4Z" style="fill:#263238"></path><path d="M220.83,394.46c0,.11-35.09.2-78.36.2s-78.37-.09-78.37-.2,35.08-.19,78.37-.19S220.83,394.36,220.83,394.46Z" style="fill:#263238"></path><path d="M270.32,381.36c0,.11-46.17.19-103.11.19s-103.11-.08-103.11-.19,46.16-.19,103.11-.19S270.32,381.25,270.32,381.36Z" style="fill:#263238"></path><rect x="57.03" y="394.46" width="211.74" height="33.79" style="fill:#455a64"></rect><rect x="229.58" y="394.66" width="57.62" height="33.4" style="fill:#455a64"></rect><rect x="235" y="399.23" width="52.2" height="24" style="fill:#f5f5f5"></rect><rect x="229.58" y="394.66" width="57.62" height="33.4" style="opacity:0.30000000000000004"></rect><path d="M214.09,420.84s0-.32,0-.93,0-1.53,0-2.72c0-2.39,0-5.91-.05-10.48l.08.08L70,406.9h0l.19-.19v14.13l-.19-.19,102.29.08,30.59.06,8.28,0h2.9l-.72,0h-2.13l-8.24,0-30.54.05L70,421h-.2V406.52H70l144.06.11h.08v.08c0,4.59,0,8.13,0,10.53,0,1.18,0,2.08,0,2.7S214.09,420.84,214.09,420.84Z" style="fill:#263238"></path><path d="M229.65,428c-.1,0-.19-7.57-.19-16.91s.09-16.91.19-16.91.2,7.57.2,16.91S229.76,428,229.65,428Z" style="fill:#263238"></path></g><g id="freepik--Book--inject-157"><polygon points="67.08 189.03 159.06 201.37 161.71 202.07 153 261.93 104.13 255.58 56.62 248.62 67.08 189.03" style="fill:#FF725E"></polygon><polygon points="151.6 258.9 150.59 260.3 59.15 247.51 59.22 245.54 95.56 245.76 145.42 250.99 151.6 258.9" style="fill:#e0e0e0"></polygon><path d="M159.68,201.43s-11.22-13.3-45.92-7.34c0,0-21-14.29-44.88-5.59l-9.66,57s30.53-.31,40.21,7.25l12,1.53s28.11-5.83,40.21,4.58Z" style="fill:#fafafa"></path><path d="M159.68,201.43l-.15,1c-.1.68-.24,1.69-.43,3-.38,2.65-.93,6.54-1.64,11.53-1.41,10-3.44,24.34-5.93,41.89l.11,0a21.63,21.63,0,0,0-3.94-2.59,28.81,28.81,0,0,0-4.53-1.78,46.53,46.53,0,0,0-10-1.7,81.26,81.26,0,0,0-10.69.05,96.1,96.1,0,0,0-11.09,1.41h0l-12-1.53,0,0a18.58,18.58,0,0,0-4.27-2.39,41.36,41.36,0,0,0-4.71-1.59,79.27,79.27,0,0,0-10-1.94c-3.41-.46-6.89-.79-10.4-1s-7.08-.34-10.68-.34h-.2l.09.1c3.42-20.21,6.68-39.48,9.66-57l0,.06a48.66,48.66,0,0,1,6.22-1.78c.52-.14,1-.2,1.56-.3s1-.2,1.57-.26l1.56-.2,1.55-.14a50.55,50.55,0,0,1,12,.59,57.33,57.33,0,0,1,10.91,3,52.09,52.09,0,0,1,9.4,4.65h0a96.36,96.36,0,0,1,19.93-1.48,54.78,54.78,0,0,1,14.86,2.49,32.61,32.61,0,0,1,8.58,4.13,18.07,18.07,0,0,1,1.94,1.54c.41.38.6.6.6.6a6,6,0,0,0-.59-.61,17.41,17.41,0,0,0-1.93-1.56,32.62,32.62,0,0,0-8.58-4.17,55.56,55.56,0,0,0-14.88-2.52A96.48,96.48,0,0,0,113.75,194h0a51.93,51.93,0,0,0-9.41-4.68,58.29,58.29,0,0,0-10.93-3,50.91,50.91,0,0,0-12.09-.59l-1.56.13-1.56.2c-.53.06-1,.16-1.57.26s-1,.17-1.57.3a49.55,49.55,0,0,0-6.25,1.78h0v.05c-3,17.56-6.24,36.83-9.67,57v.1h.29c3.59,0,7.15.12,10.67.34s7,.54,10.39,1a80.25,80.25,0,0,1,10,1.94,42.5,42.5,0,0,1,4.7,1.58,18.31,18.31,0,0,1,4.24,2.37h0l12,1.53h0A93.68,93.68,0,0,1,122.47,253a77.66,77.66,0,0,1,10.67,0,46.25,46.25,0,0,1,10,1.68,28.55,28.55,0,0,1,4.51,1.77,21.73,21.73,0,0,1,3.92,2.57l.09.08v-.12c2.46-17.57,4.47-31.94,5.87-41.92.69-5,1.24-8.88,1.6-11.53.19-1.32.32-2.33.42-3S159.68,201.43,159.68,201.43Z" style="fill:#263238"></path><path d="M104.35,253.68c.05,0,2.21-13.3,4.83-29.72s4.71-29.74,4.67-29.75-2.21,13.3-4.83,29.72S104.31,253.67,104.35,253.68Z" style="fill:#263238"></path><path d="M73.21,195.45s0,0,.09,0l.28,0,1.06-.19.77-.15.91-.13c.66-.08,1.41-.21,2.25-.27l1.3-.12c.46,0,.93,0,1.43-.07,1-.07,2-.05,3.13-.05a50.11,50.11,0,0,1,14.16,2.32c1,.35,2,.67,3,1,.46.18.9.34,1.32.52l1.2.53c.78.32,1.44.68,2,1l.83.41.68.38.94.52.25.13.09,0-.08-.05-.24-.15-.93-.54-.67-.4c-.25-.14-.53-.27-.83-.43-.59-.3-1.26-.67-2-1l-1.2-.54c-.41-.19-.86-.35-1.32-.53-.91-.38-1.91-.71-3-1.07a54.37,54.37,0,0,0-7-1.69,52.36,52.36,0,0,0-7.18-.63c-1.11,0-2.17,0-3.15.06-.49,0-1,0-1.43.08l-1.31.13c-.83.07-1.58.21-2.24.3l-.92.14-.76.16-1.06.22-.27.07Z" style="fill:#263238"></path><path d="M72.24,202.28h.09l.29-.05L73.7,202l.78-.14.94-.13c.67-.09,1.43-.21,2.28-.27l1.33-.12c.47,0,1-.05,1.45-.08,1-.06,2.08,0,3.2,0a55.8,55.8,0,0,1,7.3.64,58.25,58.25,0,0,1,7.14,1.67c1.07.36,2.09.67,3,1.05.47.18.93.34,1.35.52l1.23.54c.79.32,1.47.68,2.08,1l.85.42.7.38,1,.52.25.14.09,0-.08-.06-.25-.15-1-.55-.69-.39-.84-.43c-.61-.3-1.29-.67-2.08-1l-1.23-.55c-.43-.18-.88-.34-1.35-.53-.93-.38-2-.7-3-1.06A54.87,54.87,0,0,0,91,201.73a56.24,56.24,0,0,0-7.33-.64c-1.13,0-2.2,0-3.2.07-.51,0-1,0-1.46.08l-1.33.13c-.85.07-1.62.2-2.29.3l-.93.14-.78.16-1.08.22-.28.06Z" style="fill:#263238"></path><path d="M70.12,209.05h.1l.28,0,1.09-.2.78-.14.93-.13c.67-.08,1.44-.21,2.29-.27l1.33-.12c.46,0,1,0,1.45-.07,1-.07,2.07,0,3.2,0a55.9,55.9,0,0,1,7.3.65A56.71,56.71,0,0,1,96,210.34c1.07.35,2.1.67,3,1,.46.18.92.34,1.35.53l1.23.53c.79.32,1.47.68,2.08,1l.85.41.69.38,1,.53.26.13.08,0-.08-.06-.24-.14-1-.55-.7-.4-.84-.43c-.61-.3-1.29-.67-2.07-1l-1.23-.54c-.43-.19-.89-.35-1.35-.54-.93-.38-2-.7-3-1.06a56.3,56.3,0,0,0-7.16-1.69,56,56,0,0,0-7.32-.63c-1.13,0-2.2,0-3.21.06-.5,0-1,0-1.45.08l-1.33.13c-.86.07-1.62.21-2.29.3l-.94.14-.78.16L70.5,209l-.28.06Z" style="fill:#263238"></path><path d="M69.34,215.87h.1l.28,0,1.09-.2.78-.14.93-.13c.68-.08,1.44-.21,2.29-.27l1.33-.12c.46,0,1-.05,1.45-.07,1-.07,2.07,0,3.2,0a55.9,55.9,0,0,1,7.3.65,54.25,54.25,0,0,1,7.13,1.67c1.07.35,2.1.67,3,1,.46.18.92.34,1.35.53l1.23.53c.79.32,1.47.68,2.08,1l.85.41.7.38,1,.53.26.13.09,0-.09-.06-.24-.14-1-.55-.69-.4-.85-.43c-.6-.3-1.29-.67-2.07-1l-1.23-.54c-.43-.19-.89-.35-1.35-.54-.93-.38-2-.7-3-1.06a56.3,56.3,0,0,0-7.16-1.69,56,56,0,0,0-7.32-.63c-1.13,0-2.2,0-3.21.06-.5,0-1,0-1.45.08L74.8,215c-.86.07-1.62.21-2.29.3l-.94.14-.78.16-1.07.22-.28.06Z" style="fill:#263238"></path><path d="M67.77,222.66h.1l.28,0,1.08-.19.78-.15.94-.13c.67-.08,1.43-.21,2.28-.27l1.33-.12c.47,0,1-.05,1.45-.07,1-.07,2.08-.05,3.2-.05a57.53,57.53,0,0,1,7.3.65A56.47,56.47,0,0,1,93.65,224c1.07.35,2.09.67,3,1,.47.19.93.35,1.35.53l1.23.53c.79.32,1.47.68,2.09,1,.3.15.59.28.84.42s.49.26.7.38l1,.52.25.13.09,0-.08-.05-.25-.15-1-.55-.69-.4-.84-.43c-.61-.3-1.29-.67-2.08-1l-1.23-.54c-.42-.19-.88-.35-1.35-.53-.93-.39-2-.71-3-1.07a56.55,56.55,0,0,0-7.15-1.69,56,56,0,0,0-7.32-.63c-1.13,0-2.21,0-3.21.06-.5,0-1,0-1.45.08l-1.34.13c-.85.07-1.61.21-2.29.3-.33,0-.65.09-.93.15l-.78.15-1.08.22-.28.07Z" style="fill:#263238"></path><path d="M66.72,229.47h.09l.29,0,1.08-.19.78-.15.93-.13c.68-.08,1.44-.21,2.29-.27l1.33-.12c.47,0,.95-.05,1.45-.07,1-.07,2.07-.05,3.2-.05a57.69,57.69,0,0,1,7.3.65,55.89,55.89,0,0,1,7.13,1.67c1.07.35,2.1.67,3,1,.47.19.92.35,1.35.53l1.23.53c.79.32,1.47.69,2.08,1,.31.15.59.28.85.42l.7.38,1,.52.26.13.09,0-.08-.05-.25-.15-1-.55-.69-.39-.85-.43c-.6-.31-1.28-.68-2.07-1L97,232.21c-.43-.19-.88-.35-1.35-.53-.93-.39-2-.71-3-1.07a56.55,56.55,0,0,0-7.15-1.69,56.14,56.14,0,0,0-7.33-.63c-1.13,0-2.2,0-3.21.06-.5,0-1,0-1.45.08l-1.33.13c-.86.07-1.62.21-2.29.3-.33,0-.65.09-.93.15l-.78.15-1.08.22-.28.07Z" style="fill:#263238"></path><path d="M65.33,236.27h.09l.29,0,1.08-.2.78-.14.93-.13c.68-.08,1.44-.21,2.29-.27l1.33-.12c.47,0,.95-.05,1.45-.07,1-.07,2.07,0,3.2,0a51.9,51.9,0,0,1,14.43,2.32c1.07.35,2.1.67,3,1,.47.18.92.34,1.35.53l1.23.53c.79.32,1.47.68,2.08,1l.85.41.7.38,1,.53.26.13.09,0-.08-.06-.25-.14-1-.55-.69-.4-.85-.43c-.6-.3-1.28-.67-2.07-1L95.63,239c-.43-.19-.88-.35-1.35-.54-.93-.38-2-.7-3-1.06a56.55,56.55,0,0,0-7.15-1.69,56.14,56.14,0,0,0-7.33-.63c-1.13,0-2.2,0-3.21.06-.5,0-1,0-1.45.08l-1.33.13c-.86.07-1.62.21-2.29.3l-.93.14-.78.16-1.08.22-.28.06Z" style="fill:#263238"></path><path d="M153.43,208.5l-.08-.06-.24-.15-.93-.55-.67-.39-.82-.43c-.6-.3-1.26-.67-2-1l-1.2-.54c-.42-.19-.87-.35-1.32-.54-.91-.38-1.92-.71-3-1.07A48.45,48.45,0,0,0,129,201.4c-1.11,0-2.16,0-3.15,0-.49,0-1,0-1.42.08l-1.31.13c-.84.07-1.59.2-2.25.29l-.91.15-.77.15-1.06.22-.27.06-.09,0h.09l.28-.05,1.06-.19.77-.14.92-.12c.66-.09,1.4-.21,2.24-.27l1.31-.12c.45,0,.93,0,1.42-.07,1-.06,2,0,3.14,0a50,50,0,0,1,14.15,2.36c1.05.35,2.05.67,3,1.05.45.18.9.34,1.32.53l1.2.53c.77.33,1.44.69,2,1l.83.42.68.38.94.52.25.14Z" style="fill:#263238"></path><path d="M152.15,215.27l-.08-.05-.24-.15-1-.56-.69-.4-.84-.43c-.61-.31-1.28-.69-2.07-1l-1.22-.56c-.43-.19-.88-.35-1.35-.54-.93-.39-2-.72-3-1.09a53.69,53.69,0,0,0-7.14-1.75,54.75,54.75,0,0,0-7.31-.71c-1.13,0-2.21,0-3.21,0-.5,0-1,0-1.46.07l-1.33.12c-.85.06-1.62.19-2.29.28l-.94.13-.78.15-1.08.22-.28.06q-.09,0-.09,0h.1l.28,0,1.08-.18.79-.14.93-.12c.67-.08,1.44-.2,2.29-.26l1.33-.11c.47,0,1,0,1.45-.06,1-.05,2.08,0,3.2,0a54.61,54.61,0,0,1,7.3.71,55.7,55.7,0,0,1,7.11,1.73c1.07.37,2.09.69,3,1.08.46.18.92.34,1.35.53l1.22.54c.79.33,1.47.7,2.08,1l.84.42.69.39,1,.53.25.13Z" style="fill:#263238"></path><path d="M152,222.36l-.08-.05-.24-.15-1-.56-.69-.4c-.25-.14-.54-.28-.84-.43-.6-.31-1.28-.68-2.07-1l-1.22-.55c-.42-.19-.88-.36-1.35-.55-.92-.39-1.95-.72-3-1.09a54.47,54.47,0,0,0-7.14-1.75,55.05,55.05,0,0,0-7.32-.71c-1.13,0-2.21,0-3.21,0-.5,0-1,0-1.45.07l-1.34.12c-.85.06-1.61.19-2.29.28l-.93.14-.78.15-1.08.21-.28.06-.1,0h.1l.28,0,1.09-.19.78-.13.94-.13c.67-.08,1.43-.2,2.28-.25l1.34-.11c.46,0,1,0,1.45-.06,1-.06,2.07,0,3.2,0a58.16,58.16,0,0,1,7.29.71,57.56,57.56,0,0,1,7.12,1.74c1.07.36,2.09.69,3,1.07.47.19.93.35,1.35.53l1.22.55c.79.33,1.47.69,2.08,1l.84.42.7.39,1,.53.25.13Z" style="fill:#263238"></path><path d="M150.52,229.07l-.08,0-.25-.15-.95-.56-.68-.4-.84-.43c-.61-.31-1.29-.68-2.07-1l-1.22-.56c-.43-.19-.89-.35-1.35-.54-.93-.39-2-.72-3-1.09a51.22,51.22,0,0,0-14.46-2.46c-1.13,0-2.2,0-3.2,0-.51,0-1,0-1.46.07l-1.33.12c-.86.06-1.62.19-2.29.28l-.94.13-.78.16-1.08.21-.28.06q-.09,0-.09,0h.1l.28-.05,1.08-.18.78-.14.94-.12c.67-.08,1.44-.2,2.29-.25l1.33-.11c.47,0,1,0,1.45-.06,1-.06,2.07,0,3.2,0a56.17,56.17,0,0,1,7.29.71,57.12,57.12,0,0,1,7.12,1.74c1.07.36,2.09.68,3,1.07.46.18.92.35,1.35.53l1.22.55c.79.33,1.47.69,2.08,1l.84.42.69.39,1,.53.25.13C150.49,229.06,150.52,229.08,150.52,229.07Z" style="fill:#263238"></path><path d="M149.83,236l-.08-.06-.25-.14-.95-.56-.69-.4-.83-.44c-.61-.3-1.29-.68-2.07-1l-1.23-.56c-.42-.19-.88-.35-1.34-.54-.93-.39-1.95-.73-3-1.09a56.07,56.07,0,0,0-7.14-1.76,56.68,56.68,0,0,0-7.32-.7c-1.13,0-2.2,0-3.21,0l-1.45.07-1.34.13c-.85.06-1.61.19-2.28.28l-.94.13-.78.15-1.08.22-.28.06-.09,0h.09l.29,0,1.08-.18.78-.14.94-.12c.67-.08,1.43-.2,2.29-.26l1.33-.11c.46,0,.95,0,1.45-.06,1,0,2.07,0,3.2,0a56.44,56.44,0,0,1,7.29.72,55.45,55.45,0,0,1,7.12,1.73c1.07.37,2.09.69,3,1.08.46.18.92.34,1.34.53l1.23.54c.78.33,1.46.7,2.07,1,.31.15.59.28.85.42l.69.39,1,.53.26.13Z" style="fill:#263238"></path><path d="M148.63,242.8s0,0-.08-.06l-.24-.15-.95-.55-.69-.4-.84-.44c-.6-.3-1.28-.68-2.07-1l-1.22-.55c-.43-.19-.88-.36-1.35-.55-.92-.39-1.95-.72-3-1.09a55.53,55.53,0,0,0-7.13-1.75,55,55,0,0,0-7.32-.7c-1.13,0-2.21,0-3.21,0-.5,0-1,0-1.45.07l-1.34.12c-.85.06-1.62.19-2.29.28l-.93.14-.78.15-1.08.22-.28.06-.1,0h.1l.28,0,1.09-.19.78-.13c.29,0,.6-.08.93-.12.68-.09,1.44-.21,2.29-.26l1.34-.11c.46,0,.94,0,1.45-.06,1-.06,2.07,0,3.2,0a56.44,56.44,0,0,1,7.29.72,55.86,55.86,0,0,1,7.12,1.73c1.06.36,2.09.69,3,1.07.47.19.92.35,1.35.54l1.22.54c.79.33,1.47.7,2.08,1,.3.16.59.29.84.43l.7.38,1,.53.25.14Z" style="fill:#263238"></path><path d="M147.76,249.68l-.08-.05-.24-.15-.95-.56-.69-.4c-.25-.14-.54-.28-.84-.43-.6-.31-1.28-.69-2.07-1l-1.22-.56c-.43-.19-.88-.35-1.35-.54-.92-.39-1.95-.72-3-1.09a53.92,53.92,0,0,0-7.13-1.75,55.05,55.05,0,0,0-7.32-.71c-1.13,0-2.21,0-3.21,0-.5,0-1,0-1.45.07l-1.34.12c-.85.06-1.62.19-2.29.28l-.93.13-.78.15-1.08.22-.28.06c-.07,0-.1,0-.1,0h.1l.28,0,1.09-.18.78-.14.93-.12c.68-.08,1.44-.2,2.29-.26l1.34-.11c.46,0,.94,0,1.44-.06,1-.05,2.08,0,3.2,0a54.61,54.61,0,0,1,7.3.71,55.86,55.86,0,0,1,7.12,1.73c1.06.37,2.09.69,3,1.08.47.18.92.35,1.35.53l1.22.54c.79.33,1.47.7,2.08,1l.84.42.7.39,1,.53.25.13Z" style="fill:#263238"></path><path d="M68,247.53a26.84,26.84,0,0,1-3.81,8.36,13.64,13.64,0,0,0,5.78-3.4,11.16,11.16,0,0,1,.11,4.77,18.21,18.21,0,0,0,6.25-8.7Z" style="fill:#455a64"></path><path d="M61.16,246.8l.08,0,.22,0,.84.1,3.11.35c2.63.3,6.26.74,10.26,1.28s7.61,1.07,10.23,1.49l3.09.5.84.14.22,0h.07l-.07,0-.22-.05-.83-.16c-.73-.14-1.78-.34-3.08-.56-2.61-.45-6.23-1-10.23-1.54s-7.63-.95-10.26-1.22c-1.32-.14-2.38-.24-3.12-.3l-.85-.07-.22,0Z" style="fill:#263238"></path></g><g id="freepik--Stopwatch--inject-157"><path d="M410.15,106.38a1.63,1.63,0,0,1-.06.37c-.06.28-.13.63-.23,1.06a15.43,15.43,0,0,1-.42,1.65c-.19.64-.37,1.37-.66,2.16l-.44,1.24c-.15.43-.34.86-.52,1.32-.36.92-.82,1.87-1.29,2.87a50.31,50.31,0,0,1-3.67,6.19,51.22,51.22,0,0,1-4.6,5.54c-.79.78-1.52,1.53-2.27,2.17-.37.33-.72.66-1.07,1l-1,.82c-.64.54-1.27,1-1.81,1.35a15.93,15.93,0,0,1-1.41,1l-.91.57a1.58,1.58,0,0,1-.33.18s.09-.09.29-.23l.89-.62c.38-.26.85-.58,1.37-1s1.15-.83,1.78-1.38l1-.83c.34-.3.68-.63,1.05-.95.74-.65,1.46-1.4,2.24-2.18a47.84,47.84,0,0,0,8.22-11.67c.48-1,.94-1.93,1.3-2.84.19-.45.39-.88.54-1.31s.31-.83.45-1.22c.31-.78.51-1.51.71-2.14s.36-1.18.47-1.63.21-.77.28-1A1.93,1.93,0,0,1,410.15,106.38Z" style="fill:#263238"></path><path d="M409.77,118.56a2.53,2.53,0,0,1-.22.6c-.16.38-.42.93-.75,1.58a34,34,0,0,1-3.07,4.9A35.21,35.21,0,0,1,401.9,130c-.54.5-1,.9-1.31,1.16a2.47,2.47,0,0,1-.52.38s.65-.65,1.68-1.7a44.13,44.13,0,0,0,3.74-4.35,44.75,44.75,0,0,0,3.12-4.82C409.33,119.36,409.72,118.54,409.77,118.56Z" style="fill:#263238"></path><rect x="324.41" y="52.12" width="5.46" height="8.52" transform="translate(29.15 202.68) rotate(-35.93)" style="fill:#263238"></rect><path d="M330.71,51.67l-9.1,6.6-5.4-7.44a21.57,21.57,0,0,1,9.11-6.6Z" style="fill:#FF725E"></path><path d="M323.13,57.17c-.15.1-1.53-1.54-3.09-3.67s-2.72-4-2.57-4S319,51,320.56,53.11,323.28,57.06,323.13,57.17Z" style="fill:#263238"></path><path d="M324.87,55.91c-.15.1-1.51-1.63-3.05-3.85a25.5,25.5,0,0,1-2.57-4.18c.18-.14,1.57,1.58,3.11,3.8S325,55.81,324.87,55.91Z" style="fill:#263238"></path><path d="M327.18,54.23c-.15.11-1.52-1.65-3.06-3.9a22.65,22.65,0,0,1-2.56-4.25c.17-.13,1.56,1.62,3.1,3.88S327.33,54.13,327.18,54.23Z" style="fill:#263238"></path><path d="M329.29,52.66c-.15.11-1.52-1.56-3.07-3.71s-2.68-4-2.54-4.09,1.52,1.56,3.07,3.71S329.43,52.56,329.29,52.66Z" style="fill:#263238"></path><rect x="391.81" y="58.65" width="5.46" height="8.52" transform="translate(195.55 -283.54) rotate(51.07)" style="fill:#263238"></rect><path d="M399.43,66.23l-7.07-8.75,7.15-5.77a21.42,21.42,0,0,1,7.07,8.75Z" style="fill:#FF725E"></path><path d="M393.54,59c-.11-.14,1.46-1.61,3.5-3.28s3.8-2.92,3.92-2.78-1.46,1.61-3.5,3.28S393.66,59.09,393.54,59Z" style="fill:#263238"></path><path d="M394.89,60.62c-.11-.15,1.55-1.59,3.69-3.24a25.55,25.55,0,0,1,4-2.8c.16.18-1.49,1.66-3.63,3.31S395,60.76,394.89,60.62Z" style="fill:#263238"></path><path d="M396.68,62.84c-.11-.15,1.57-1.6,3.75-3.26a22.91,22.91,0,0,1,4.1-2.78c.14.16-1.53,1.64-3.71,3.3S396.79,63,396.68,62.84Z" style="fill:#263238"></path><path d="M398.37,64.86c-.12-.14,1.47-1.6,3.54-3.26s3.84-2.89,3.95-2.74-1.47,1.59-3.54,3.25S398.48,65,398.37,64.86Z" style="fill:#263238"></path><rect x="359.56" y="40.38" width="6.47" height="10.09" transform="translate(5.03 -30) rotate(4.77)" style="fill:#263238"></rect><path d="M369.64,44l-13.27-1.11.9-10.83a25.4,25.4,0,0,1,13.27,1.1Z" style="fill:#FF725E"></path><path d="M370.7,33.18c.08.13-2.94,1.48-6.89,1.15s-6.72-2.09-6.61-2.21,2.87,1.29,6.66,1.56S370.64,33,370.7,33.18Z" style="fill:#263238"></path><path d="M360.75,43.19c-.18,0-.15-2.11.07-4.67s.53-4.64.71-4.62.15,2.1-.06,4.67S360.93,43.2,360.75,43.19Z" style="fill:#263238"></path><path d="M363.27,43.46c-.18,0-.15-2.11.07-4.69s.53-4.66.71-4.64.15,2.11-.06,4.69S363.45,43.48,363.27,43.46Z" style="fill:#263238"></path><path d="M365.8,43.63c-.18,0-.15-2.12.07-4.69s.53-4.66.71-4.64.15,2.11-.06,4.69S366,43.65,365.8,43.63Z" style="fill:#263238"></path><path d="M367.91,43.81c-.18,0-.14-2.29.09-5.08s.57-5,.75-5,.13,2.28-.1,5.07S368.08,43.82,367.91,43.81Z" style="fill:#263238"></path><path d="M358.37,43c-.18,0-.14-2.29.1-5.08s.56-5,.74-5,.14,2.28-.09,5.07S358.55,43,358.37,43Z" style="fill:#263238"></path><path d="M404.82,98.07a47,47,0,1,1-43-50.79A47,47,0,0,1,404.82,98.07Z" style="fill:#FF725E"></path><circle cx="357.97" cy="93.78" r="39.51" transform="translate(38.53 280.59) rotate(-45)" style="fill:#fff"></circle><path d="M397.34,97.07s0-.22,0-.65,0-1.07,0-1.87c0-.42,0-.88,0-1.39s-.08-1.06-.12-1.66a28.85,28.85,0,0,0-.48-4.13,37.57,37.57,0,0,0-3.5-10.79A39.44,39.44,0,0,0,368.39,56a35.27,35.27,0,0,0-4.89-1c-.84-.1-1.68-.26-2.54-.31l-2.6-.08c-.43,0-.87,0-1.31,0l-1.32.09c-.88.08-1.78.1-2.67.21a41.69,41.69,0,0,0-5.33,1.1,40.16,40.16,0,0,0-5.28,1.81c-.87.38-1.7.84-2.56,1.25a20.54,20.54,0,0,0-2.49,1.43,44.21,44.21,0,0,0-4.74,3.4,42.9,42.9,0,0,0-4.21,4.21A38.06,38.06,0,0,0,322,78.37a41.85,41.85,0,0,0-3,12.15,42,42,0,0,0,1,12.49,38,38,0,0,0,4.69,11.23,42.8,42.8,0,0,0,3.45,4.84,43.44,43.44,0,0,0,4.11,4.14,19.27,19.27,0,0,0,2.23,1.82c.77.56,1.52,1.14,2.31,1.66a41.73,41.73,0,0,0,4.9,2.67,41,41,0,0,0,5.09,2c.86.26,1.73.43,2.59.65l1.29.31c.43.09.86.13,1.29.19l2.58.35c.86.09,1.71.08,2.56.12a37.55,37.55,0,0,0,5-.16,39.42,39.42,0,0,0,28-16.19,37.56,37.56,0,0,0,5.24-10.07,28.56,28.56,0,0,0,1.16-4c.14-.59.3-1.13.39-1.63s.14-1,.2-1.36c.12-.8.22-1.42.28-1.86s.12-.63.12-.63a6,6,0,0,1,0,.63c-.05.45-.12,1.07-.22,1.87-.05.42-.11.88-.17,1.38s-.23,1-.36,1.64a29,29,0,0,1-1.11,4,37.39,37.39,0,0,1-5.18,10.19A39.69,39.69,0,0,1,362,133.33a38.47,38.47,0,0,1-5.06.18c-.85,0-1.72,0-2.59-.11l-2.61-.35c-.44-.07-.89-.1-1.32-.19l-1.31-.32c-.87-.21-1.76-.39-2.63-.65a43.07,43.07,0,0,1-10.16-4.68c-.8-.52-1.56-1.11-2.35-1.67a20.75,20.75,0,0,1-2.26-1.85,43.62,43.62,0,0,1-4.18-4.2,44.7,44.7,0,0,1-3.52-4.92,38.57,38.57,0,0,1-4.77-11.41,42.69,42.69,0,0,1-1-12.7,42.6,42.6,0,0,1,3.1-12.35A38.39,38.39,0,0,1,328,67.66a44.22,44.22,0,0,1,4.28-4.27,45.23,45.23,0,0,1,4.82-3.45,21.23,21.23,0,0,1,2.54-1.44c.87-.43,1.72-.89,2.59-1.27A43.72,43.72,0,0,1,353,54.3c.9-.11,1.81-.14,2.71-.21L357,54c.44,0,.88,0,1.33,0l2.63.09c.87.06,1.72.22,2.58.32a36.63,36.63,0,0,1,5,1,39.74,39.74,0,0,1,25.08,21A37.62,37.62,0,0,1,397,87.33a28.53,28.53,0,0,1,.43,4.16c0,.6.08,1.16.08,1.67s0,1-.06,1.39c0,.8-.07,1.43-.09,1.88S397.34,97.07,397.34,97.07Z" style="fill:#263238"></path><path d="M387.78,94.61c-3.09-.21-5.58-.56-5.57-.79s2.52-.36,5.62-.28,5.58.43,5.56.79S390.86,94.82,387.78,94.61Z" style="fill:#263238"></path><path d="M378.11,114.38c-2.05-2.32-3.57-4.32-3.4-4.48s2,1.53,4.19,3.76,3.66,4.23,3.39,4.48S380.15,116.7,378.11,114.38Z" style="fill:#263238"></path><path d="M357.32,121.64c.18-3.08.51-5.58.74-5.57s.38,2.52.34,5.61-.37,5.6-.74,5.58S357.15,124.73,357.32,121.64Z" style="fill:#263238"></path><path d="M337.45,112.19c2.29-2.07,4.28-3.61,4.44-3.45s-1.5,2.06-3.71,4.23-4.19,3.72-4.44,3.45S335.15,114.26,337.45,112.19Z" style="fill:#263238"></path><path d="M330,91.49c3.09.14,5.58.44,5.58.67s-2.52.41-5.61.41-5.59-.31-5.59-.68S326.87,91.35,330,91.49Z" style="fill:#263238"></path><path d="M339.19,71.51c2.1,2.27,3.66,4.25,3.5,4.4s-2.08-1.48-4.27-3.66-3.76-4.15-3.5-4.4S337.1,69.24,339.19,71.51Z" style="fill:#263238"></path><path d="M359.81,63.79c-.11,3.09-.39,5.6-.62,5.59s-.43-2.51-.46-5.6.25-5.6.62-5.59S359.92,60.7,359.81,63.79Z" style="fill:#263238"></path><path d="M379.89,72.81c-2.25,2.12-4.21,3.7-4.37,3.54S377,74.26,379.14,72s4.11-3.8,4.36-3.54S382.14,70.69,379.89,72.81Z" style="fill:#263238"></path><path d="M370.69,73.77a135.43,135.43,0,0,1-2,17.27,21.53,21.53,0,0,1-1.75,6,8.17,8.17,0,0,1-4.48,4.19,5.09,5.09,0,0,1-5.65-1.6Z" style="fill:#e0e0e0"></path><polygon points="357.38 90.61 373.69 67.7 362.79 94.18 358.27 95.14 357.38 90.61" style="fill:#FF725E"></polygon><g style="opacity:0.4"><polygon points="373.69 67.7 361.03 91.44 362.79 94.18 373.69 67.7"></polygon></g><path d="M362.87,95.52a4.62,4.62,0,1,1-4.22-5A4.62,4.62,0,0,1,362.87,95.52Z" style="fill:#fafafa"></path><path d="M362.87,95.52c-.06,0,0-.41-.17-1.11a4.65,4.65,0,0,0-1.49-2.53,4.43,4.43,0,0,0-4.07-.91,4.34,4.34,0,1,0,3.49,7.87,4.68,4.68,0,0,0,1.89-2.25c.26-.66.29-1.08.35-1.07a2.32,2.32,0,0,1-.11,1.15,4.58,4.58,0,0,1-1.89,2.55,4.79,4.79,0,0,1-4.66.38,4.9,4.9,0,0,1,.77-9.21,4.84,4.84,0,0,1,4.54,1.15A4.63,4.63,0,0,1,363,94.36,2.29,2.29,0,0,1,362.87,95.52Z" style="fill:#263238"></path><path d="M361.7,95.42a3.44,3.44,0,1,1-3.15-3.71A3.44,3.44,0,0,1,361.7,95.42Z" style="fill:#455a64"></path><path d="M312.7,117.15a2.08,2.08,0,0,1-.23-.26l-.61-.78a14.09,14.09,0,0,1-.91-1.26c-.34-.51-.74-1.08-1.11-1.75-.2-.33-.4-.68-.61-1s-.39-.76-.59-1.17c-.43-.79-.79-1.69-1.19-2.62a36.78,36.78,0,0,1-2.64-12.88c0-1,0-2,.07-2.88,0-.45,0-.89.09-1.31s.1-.81.15-1.19c.07-.77.23-1.45.33-2.05s.23-1.11.34-1.52.19-.7.26-1a1.4,1.4,0,0,1,.11-.33,1.72,1.72,0,0,1-.05.34c-.05.26-.12.57-.2,1a14.34,14.34,0,0,0-.29,1.52c-.09.6-.23,1.28-.29,2,0,.38-.08.78-.13,1.19s0,.85-.07,1.3c-.07.89,0,1.85,0,2.86a37.55,37.55,0,0,0,2.62,12.79c.39.92.74,1.82,1.15,2.61.2.4.38.8.58,1.17l.58,1c.36.68.75,1.25,1.07,1.76s.62,1,.87,1.29l.56.81A1.15,1.15,0,0,1,312.7,117.15Z" style="fill:#263238"></path><path d="M302.57,108.2a39.86,39.86,0,0,1-1.32-4.66,39.32,39.32,0,0,1-1-4.74,38.66,38.66,0,0,1,1.33,4.66A36,36,0,0,1,302.57,108.2Z" style="fill:#263238"></path></g><g id="freepik--Character--inject-157"><path d="M281.86,201.87c.16-5.29,1.09-10.54,1-15.82s-1.4-10.81-5-14.66-10-5.42-14.35-2.44l-1,4.48c1.32,20.4.71,41.1,2,61.51.17,2.68,2.3,5.14,3.47,7.55s3.58,4.44,6.27,4.33c3.51-.16,5.87-3.67,7-7C285.5,227.79,281.48,214.6,281.86,201.87Z" style="fill:#263238"></path><path d="M269.66,174.24a14.88,14.88,0,0,0-2.62-3.69,5,5,0,0,0-4.14-1.46,2.09,2.09,0,0,0-1.67,1.17c-.25.67.24,1.58.95,1.53l.15.13q2.34,2.15,4.75,4.19a4,4,0,0,0,1.34.86,1.42,1.42,0,0,0,1.48-.28C270.5,176,270.09,175,269.66,174.24Z" style="fill:#FF725E"></path><path d="M272.55,179.48a26.69,26.69,0,0,0-20.47-10.65c-4.69-.17-6.65.77-10,1.62a14.81,14.81,0,0,0-8.54,5.43c-2.46,3.36-4.54,7.12-5.07,11.25a35.85,35.85,0,0,0,.45,11.83A47,47,0,0,0,235,213l7.18,1c6,.31,12,.62,17.89-.64s11.58-4.29,14.79-9.34C279.29,197,277.69,186,272.55,179.48Z" style="fill:#263238"></path><path d="M262.91,179.24l-14.33-6-3.78.37c-8.49-.12-14.52,9.13-14.7,16-.2,7.64-.14,17,1,22.62,2.23,11.37,11.87,12.49,11.87,12.49s-.5,10.22-.64,14l22.61-1.62,1.75-53.93A4,4,0,0,0,262.91,179.24Z" style="fill:#ffbf9d"></path><path d="M248.09,209.88a2.41,2.41,0,0,0-.8-1.5,2.47,2.47,0,0,0-3-.22,3.33,3.33,0,0,0-1.31,3.07h0a3,3,0,0,0,2.13,1.28,1.79,1.79,0,0,0,.4,0,2.69,2.69,0,0,0,1.83-.68A2.4,2.4,0,0,0,248.09,209.88Z" style="fill:#ff9a6c"></path><path d="M234.51,199.9a1.46,1.46,0,0,0,1.46,1.43,1.41,1.41,0,0,0,1.47-1.38,1.48,1.48,0,0,0-1.47-1.43A1.4,1.4,0,0,0,234.51,199.9Z" style="fill:#263238"></path><path d="M232.62,193.47c.19.18,1.27-.68,2.85-.73s2.76.69,2.92.49-.11-.43-.63-.77a4,4,0,0,0-2.35-.64,3.89,3.89,0,0,0-2.26.83C232.68,193,232.53,193.39,232.62,193.47Z" style="fill:#263238"></path><path d="M242.52,206a10.46,10.46,0,0,0-2.58-.36c-.4,0-.79-.1-.86-.37a2,2,0,0,1,.22-1.2c.34-1,.7-2,1.08-3.11,1.49-4.43,2.56-8.07,2.38-8.13s-1.53,3.49-3,7.91c-.36,1.1-.7,2.14-1,3.13a2.36,2.36,0,0,0-.15,1.59,1,1,0,0,0,.69.57,3.56,3.56,0,0,0,.68.07A10.38,10.38,0,0,0,242.52,206Z" style="fill:#263238"></path><path d="M242.93,224.69a29,29,0,0,0,15.15-4.64s-3.78,8.07-15.26,7.42Z" style="fill:#ff9a6c"></path><path d="M247.2,206.94c-.25,0-.19,1.7-1.62,3s-3.25,1.15-3.25,1.39.42.32,1.19.31a4.28,4.28,0,0,0,2.72-1.06,3.75,3.75,0,0,0,1.25-2.49C247.53,207.34,247.32,206.92,247.2,206.94Z" style="fill:#263238"></path><path d="M233.26,188c.28.38,1.47.07,2.89.14s2.6.39,2.9,0c.13-.18,0-.55-.54-.92a4.28,4.28,0,0,0-2.32-.72,4.2,4.2,0,0,0-2.35.58C233.32,187.42,233.13,187.78,233.26,188Z" style="fill:#263238"></path><path d="M252.38,199.18a1.47,1.47,0,0,1-1.42,1.48,1.41,1.41,0,0,1-1.51-1.32,1.46,1.46,0,0,1,1.41-1.48A1.41,1.41,0,0,1,252.38,199.18Z" style="fill:#263238"></path><path d="M254,193.25c-.18.19-1.3-.63-2.87-.63s-2.74.79-2.91.6.1-.43.6-.8a4.05,4.05,0,0,1,2.33-.72,3.91,3.91,0,0,1,2.29.74C253.88,192.82,254.05,193.16,254,193.25Z" style="fill:#263238"></path><path d="M253.1,188.18c-.31.36-1.53,0-3,0s-2.71.24-3-.14c-.13-.18.07-.54.61-.88a4.51,4.51,0,0,1,2.44-.58,4.44,4.44,0,0,1,2.38.72C253.07,187.64,253.24,188,253.1,188.18Z" style="fill:#263238"></path><path d="M264.35,202.34c0-.86.88-2.9,1.71-3.06,2.23-.43,6.29-.4,6.53,5.3.34,7.79-7.55,6.52-7.58,6.3S264.45,205.27,264.35,202.34Z" style="fill:#ffbf9d"></path><path d="M267,207.94s.14.09.38.18a1.3,1.3,0,0,0,1,0c.81-.34,1.45-1.67,1.42-3.08a4.43,4.43,0,0,0-.46-1.93,1.54,1.54,0,0,0-1.07-1,.69.69,0,0,0-.78.4c-.1.22,0,.38-.08.39s-.17-.12-.12-.44a.82.82,0,0,1,.28-.51,1,1,0,0,1,.74-.23,1.91,1.91,0,0,1,1.47,1.15,4.52,4.52,0,0,1,.57,2.15c0,1.57-.72,3.08-1.84,3.45a1.46,1.46,0,0,1-1.25-.15C267.06,208.13,267,208,267,207.94Z" style="fill:#ff9a6c"></path><path d="M266.38,199.31l-2,2c-8.39-8.33-24.7-29.1-23.79-27.86a24.82,24.82,0,0,1,12.22-1.1c6.33,1.19,18.32,4.59,18,12.08S266.38,199.31,266.38,199.31Z" style="fill:#263238"></path><path d="M277.72,197.79a3.29,3.29,0,0,0-.11-.45,8.38,8.38,0,0,0-.51-1.23,11.1,11.1,0,0,0-3.19-3.72,21,21,0,0,0-6.49-3.27c-2.58-.9-5.51-1.61-8.37-2.9a38.38,38.38,0,0,1-7.61-4.45,39.65,39.65,0,0,1-5.34-4.84,43.29,43.29,0,0,1-3.07-3.78l-.76-1.09a2.38,2.38,0,0,0-.28-.37s.06.15.21.41.38.65.7,1.14a36.76,36.76,0,0,0,8.32,8.83,38,38,0,0,0,7.67,4.52,86.77,86.77,0,0,0,8.42,2.87,21.66,21.66,0,0,1,6.43,3.15,11.52,11.52,0,0,1,3.22,3.57C277.52,197.18,277.68,197.81,277.72,197.79Z" style="fill:#455a64"></path><path d="M275.43,199a4.12,4.12,0,0,0-.27-1.71,8,8,0,0,0-2.86-3.72,17.71,17.71,0,0,0-6.44-2.66,38,38,0,0,1-8-2.71,34.34,34.34,0,0,1-7.11-4.57,35.33,35.33,0,0,1-4.85-4.94,37.92,37.92,0,0,1-2.68-3.83l-.64-1.1a2,2,0,0,0-.24-.37s0,.14.17.41l.58,1.14a32.4,32.4,0,0,0,2.59,3.93,34.23,34.23,0,0,0,4.83,5,33.53,33.53,0,0,0,7.18,4.65,37.32,37.32,0,0,0,8.11,2.71,17.67,17.67,0,0,1,6.37,2.53,8.13,8.13,0,0,1,2.88,3.55A9.15,9.15,0,0,1,275.43,199Z" style="fill:#455a64"></path><path d="M265.88,212.48s.66-.13,1.82-.41a11.2,11.2,0,0,0,4.4-2.35,15.76,15.76,0,0,0,4.16-6.12,27.38,27.38,0,0,0,1.85-8.95,21.51,21.51,0,0,0-5.42-15.32,37.13,37.13,0,0,0-5.14-4.65,2.26,2.26,0,0,1,.43.23c.26.18.67.41,1.16.77a24,24,0,0,1,3.82,3.41,22.25,22.25,0,0,1,4.09,6.42,21.18,21.18,0,0,1,1.58,9.16,27,27,0,0,1-1.93,9.11,15.73,15.73,0,0,1-4.36,6.21,10.9,10.9,0,0,1-4.59,2.28,10.38,10.38,0,0,1-1.38.19A1.66,1.66,0,0,1,265.88,212.48Z" style="fill:#455a64"></path><path d="M302.25,369.74H209.48a3.4,3.4,0,0,1-3.4-3.4h0a3.4,3.4,0,0,1,3.4-3.41h92.77a3.4,3.4,0,0,1,3.4,3.41h0A3.4,3.4,0,0,1,302.25,369.74Z" style="fill:#455a64"></path><path d="M306.09,464.09a2.23,2.23,0,0,1-2.43-2l-8.14-84.41a3.36,3.36,0,0,0-3.32-3.08H221.12a3.36,3.36,0,0,0-3.32,3.08l-8.14,84.41a2.22,2.22,0,0,1-2.42,2h0a2.26,2.26,0,0,1-2-2.49l8.14-84.41a7.86,7.86,0,0,1,7.73-7.18H292.2a7.85,7.85,0,0,1,7.73,7.18l8.14,84.41a2.26,2.26,0,0,1-2,2.49Z" style="fill:#e0e0e0"></path><path d="M306.09,464.09a2.25,2.25,0,0,0,1.21-.56,2.3,2.3,0,0,0,.73-1.44,21.63,21.63,0,0,0-.19-2.31c-.35-3.51-.86-8.68-1.52-15.32-1.31-13.32-3.19-32.58-5.52-56.37-.29-3-.59-6-.89-9.14-.09-.77-.13-1.57-.26-2.33a8.6,8.6,0,0,0-.72-2.2,7.56,7.56,0,0,0-5.5-4.1,14,14,0,0,0-2.44-.11h-15.4l-44.89,0h-9a8.27,8.27,0,0,0-2.9.38,7.61,7.61,0,0,0-4.36,3.77c-1,1.76-.86,3.88-1.12,5.94q-1.18,12.35-2.42,25.2c-1.65,17.13-3.36,34.85-5.11,53-.1,1.12-.25,2.31-.3,3.37a2,2,0,0,0,3.9,0c.11-1.12.22-2.24.32-3.37q.66-6.72,1.29-13.36,1.29-13.26,2.53-26.12T216,393.89q.58-6.18,1.18-12.22c.1-1,.19-2,.29-3a14,14,0,0,1,.19-1.52,3.55,3.55,0,0,1,.68-1.44,3.51,3.51,0,0,1,2.78-1.37h3l44.89,0,20.35,0h2.43a3.78,3.78,0,0,1,2.41.61,3.66,3.66,0,0,1,1.43,2,22.43,22.43,0,0,1,.28,2.37q.45,4.67.87,9.14c2.26,23.8,4.09,43.06,5.36,56.38.62,6.65,1.1,11.81,1.43,15.33.1.87.1,1.66.25,2.3a2.26,2.26,0,0,0,1,1.27,2.29,2.29,0,0,0,1.3.31,2,2,0,0,1-1.33-.26,2.31,2.31,0,0,1-1-1.3,21.33,21.33,0,0,1-.29-2.31c-.35-3.51-.86-8.68-1.52-15.32-1.31-13.32-3.19-32.58-5.52-56.37-.29-3-.59-6-.89-9.13-.1-.77-.11-1.6-.28-2.31a3.18,3.18,0,0,0-1.28-1.79,3.34,3.34,0,0,0-2.18-.54H269l-44.89,0h-3a3.07,3.07,0,0,0-2.4,1.18,3.27,3.27,0,0,0-.59,1.25,13.18,13.18,0,0,0-.17,1.47c-.1,1-.2,2-.29,3q-.58,6-1.18,12.23c-.79,8.23-1.6,16.65-2.42,25.21s-1.67,17.28-2.52,26.12q-.64,6.64-1.29,13.36c-.11,1.13-.21,2.25-.32,3.37a2.47,2.47,0,0,1-4.94-.06c.06-1.21.2-2.29.3-3.44,1.75-18.16,3.46-35.88,5.12-53q1.25-12.84,2.44-25.2c.1-1,.19-2.06.29-3.08a8.4,8.4,0,0,1,.88-3,8.15,8.15,0,0,1,4.64-4,8.73,8.73,0,0,1,3.06-.41h9l44.89,0H291a14.17,14.17,0,0,1,2.51.12,8,8,0,0,1,2.38.81,8.22,8.22,0,0,1,3.4,3.51,8.74,8.74,0,0,1,.75,2.32c.14.8.17,1.57.26,2.36.3,3.11.59,6.16.87,9.13,2.26,23.8,4.09,43.06,5.36,56.39.62,6.65,1.1,11.82,1.43,15.33a20.88,20.88,0,0,1,.16,2.32,2.37,2.37,0,0,1-.78,1.48A2,2,0,0,1,306.09,464.09Z" style="fill:#263238"></path><rect x="220.97" y="242.92" width="86.25" height="67.71" rx="9.85" style="fill:#455a64"></rect><path d="M220.23,241.4s-1.21-2.55,2.8-5,19.62-5.64,19.62-5.64.63,5.73,11.92,4.87c8.83-.67,10.24-6.75,10.24-6.75l22.34,3s2.3,24.88-.87,47.35C285.46,285,283,312,283,312l5.2,5.36-69.72,2.51,5.65-7.64-.83-43.4Z" style="fill:#FF725E"></path><path d="M283,231.39s7.12-.12,12,4.23,12.66,21.62,12.66,21.62l-21.54,12.35Z" style="fill:#FF725E"></path><path d="M205.51,256.28l22.09,15.49-3.43-35.62S218.57,234.72,205.51,256.28Z" style="fill:#FF725E"></path><path d="M288.64,246.47a3.46,3.46,0,0,1,0,1c0,.76-.07,1.66-.12,2.71-.15,2.42-.33,5.5-.54,8.91s-.33,6.63-.4,8.92a28.17,28.17,0,0,1-.19,3.69,3.87,3.87,0,0,1-.1-1c0-.64-.07-1.56-.08-2.71,0-2.29.06-5.45.25-8.94s.47-6.63.69-8.91c.11-1.14.21-2.06.29-2.69A3.72,3.72,0,0,1,288.64,246.47Z" style="fill:#263238"></path><path d="M220.57,249.7c.14,0,.88,4.82,1.65,10.8s1.27,10.86,1.12,10.88-.87-4.82-1.64-10.81S220.43,249.72,220.57,249.7Z" style="fill:#263238"></path><path d="M252.16,351s-4,12.84-3.21,26.27,2,75.65,1.55,76.69,21.57,4.13,21.57,4.13,5.57-31.25,6.69-39.25,3.62-9.81,3.34-31.5S288,370.19,292.41,363s6.12-13.89,3.62-26.28S282.48,313,282.48,313L259,322.53l-8.68,24.41Z" style="fill:#263238"></path><path d="M295.5,375.45l12,21.46,14.75,14.44A2.36,2.36,0,0,1,322,415h0a2.82,2.82,0,0,1-2.39.48c-5.32-1.33-24.62-6.67-25.37-7.76C293,406,279.7,385.63,279.7,385.63Z" style="fill:#263238"></path><path d="M322,415l-28.88-8.9.53.9a4.13,4.13,0,0,0,2.09,1.69c2.38.85,9,3.05,23.8,6.83A2.87,2.87,0,0,0,322,415Z" style="fill:#455a64"></path><path d="M311.29,408.34a7.22,7.22,0,0,1,1-2.66,7.9,7.9,0,0,1,2.36-1.8c0-.06-.4-.08-1,.12a4.05,4.05,0,0,0-1.85,1.37,3.7,3.7,0,0,0-.78,2.08C311.07,408,311.22,408.35,311.29,408.34Z" style="fill:#fff"></path><path d="M314.59,410.36c.17,0,.49-1,1.49-1.94s2.12-1.25,2.08-1.4a3.12,3.12,0,0,0-2.49,1C314.54,409.09,314.44,410.36,314.59,410.36Z" style="fill:#fff"></path><path d="M306.11,406.24a24.54,24.54,0,0,1,2.08-3.13,27.31,27.31,0,0,1,3-2.46,6.06,6.06,0,0,0-3.4,2.12A5.32,5.32,0,0,0,306.11,406.24Z" style="fill:#fff"></path><path d="M301.89,400c.13.1,1.11-1,2.72-1.92s3.13-1.18,3.1-1.34a5.46,5.46,0,0,0-3.4.88C302.58,398.58,301.76,399.94,301.89,400Z" style="fill:#fff"></path><path d="M223,317.6s24.21-8.18,32.14-8.18,12.47,1,17.52,11.13c5.95,11.94,33.15,68.94,33.1,68.43l-19.37,10.61s-24.65-33.86-29.93-42l-5.28-8.16s2.92,9.31-2.8,13.39-27,2-33.2-4.15-7.14-12.1-4.94-22.3S223,317.6,223,317.6Z" style="fill:#263238"></path><path d="M248.23,327.8a7.37,7.37,0,0,0-1.91,2.8,8.06,8.06,0,0,0-.38,3.57,22,22,0,0,0,1,4.37,59,59,0,0,0,3,7.69l1.1,2.26a3.69,3.69,0,0,1,.38.84,3.17,3.17,0,0,1-.54-.76c-.31-.52-.75-1.27-1.24-2.22a46.94,46.94,0,0,1-3.15-7.69,20.85,20.85,0,0,1-1-4.45,8.13,8.13,0,0,1,.5-3.71,5.94,5.94,0,0,1,1.43-2.14A2.69,2.69,0,0,1,248.23,327.8Z" style="fill:#455a64"></path><path d="M273.18,432.93l-1.32,27.43,5.7,22a2.83,2.83,0,0,1-2.44,3.43h0a3.17,3.17,0,0,1-2.65-.78c-4.42-4.11-20.18-19.49-20.25-21-.1-2.33-.83-29.35-.83-29.35Z" style="fill:#263238"></path><path d="M275.12,485.76l-23-23.93,0,1.17a4.29,4.29,0,0,0,1,2.76c1.83,2.09,7,7.75,19.28,19.22a3.18,3.18,0,0,0,2.74.78Z" style="fill:#455a64"></path><path d="M268.63,473.63a9.24,9.24,0,0,1,2.65-2.08,9.92,9.92,0,0,1,3.42-.54c0-.06-.34-.28-1-.39A5.15,5.15,0,0,0,271,471a4.67,4.67,0,0,0-2,1.65C268.61,473.21,268.56,473.61,268.63,473.63Z" style="fill:#fff"></path><path d="M270.65,477.35a26.41,26.41,0,0,1,2.65-1.13,28.07,28.07,0,0,1,2.9-.28c.09-.14-1.32-.75-3.07-.3S270.5,477.27,270.65,477.35Z" style="fill:#fff"></path><path d="M264.82,468.84c.13.14,1.62-1.21,4-2s4.4-.68,4.41-.86-2.14-.57-4.64.29S264.67,468.76,264.82,468.84Z" style="fill:#fff"></path><path d="M264.46,460.48c.08.16,1.73-.44,3.86-.47s3.81.48,3.87.31-1.59-1-3.88-.91S264.37,460.35,264.46,460.48Z" style="fill:#fff"></path><path d="M286.34,399.59a4.5,4.5,0,0,1-.51-.63l-1.36-1.86-4.94-6.9-16.14-22.86L251,349.53l.39-.16c1,5.34-.09,10.12-2.18,12.54a6.07,6.07,0,0,1-3,2.07,4.06,4.06,0,0,1-.94.19l-.32,0c0-.05.45-.06,1.22-.34a6.17,6.17,0,0,0,2.82-2.09c2-2.4,3-7.07,1.94-12.31l-.2-1,.59.84L263.82,367c6.24,8.94,11.88,17,16,22.95,2,2.92,3.64,5.3,4.81,7l1.28,1.92A5.09,5.09,0,0,1,286.34,399.59Z" style="fill:#455a64"></path><path d="M302.41,381.65c-.13.06-7.33-14.45-16.09-32.4s-15.76-32.57-15.63-32.63,7.34,14.44,16.1,32.4S302.54,381.59,302.41,381.65Z" style="fill:#455a64"></path><path d="M206.76,257.09s-18.07,25.68-18.06,34.27c0,4.85,3,9.85,7.83,10.85,5.15,1.07,16.51,2.29,16.51,2.29l2-14L208.7,288l14.64-19.22Z" style="fill:#ffbf9d"></path><path d="M224.67,294.39S232,304.47,232,304.47l2.2.8-.38-2.17-6.63-10.49Z" style="fill:#263238"></path><path d="M232.11,302.14s0-1.57.45-2,1.91-2.36,1.57-3.37-2.69-1.79-3.36-2.91,0-2.35-2.13-3.47-9.86-2.84-11.54-2.26-2.59,3.75-2.59,3.75-2.79.3-2.45,4.56l0,1.12s-.7,3.36,0,4.59c0,0-.87,2.47,1.15,3.81s9,.23,9.77,0c0,0,1.92.45,2.91-.45s.54-2.68.54-2.68,1.68,0,2.24-.9l.56-.9s1.23,1.91,2.13,1.91A.69.69,0,0,0,232.11,302.14Z" style="fill:#ffbf9d"></path><path d="M210.83,274l13,17.27,4.43,3.09-1-2.19L213,272.45a1.33,1.33,0,0,0-1.94-.24h0A1.34,1.34,0,0,0,210.83,274Z" style="fill:#263238"></path><path d="M222,290.07a2.9,2.9,0,0,1,.83.36,24.08,24.08,0,0,1,2.12,1.26,17.34,17.34,0,0,1,2.86,2.31,6.5,6.5,0,0,1,1.32,1.79,2.27,2.27,0,0,1,.2,1.25,1.56,1.56,0,0,1-.79,1.11,2.85,2.85,0,0,1-2.44,0c-.71-.29-1.37-.59-2-.91a22.51,22.51,0,0,1-3.11-2,18.56,18.56,0,0,1-1.87-1.61,2.92,2.92,0,0,1-.59-.69c.06-.06,1,.83,2.68,2a26,26,0,0,0,3.1,1.83c.61.3,1.27.6,1.95.86a2.33,2.33,0,0,0,2,.05,1.23,1.23,0,0,0,.37-1.69,6.29,6.29,0,0,0-1.2-1.67,19.31,19.31,0,0,0-2.72-2.34C223,290.79,221.92,290.14,222,290.07Z" style="fill:#ff9a6c"></path><path d="M226.22,303a16,16,0,0,1-8.51-3.6c.09-.13,1.85,1,4.19,1.95S226.25,302.88,226.22,303Z" style="fill:#ff9a6c"></path><path d="M221.65,306a16.15,16.15,0,0,1-5.25-2.2,7.9,7.9,0,0,1,2.73.85A7.68,7.68,0,0,1,221.65,306Z" style="fill:#ff9a6c"></path><path d="M230.08,296.09c.1.12-.8.85-1.09,2.12a9,9,0,0,0,0,2.38c-.06,0-.26-.19-.43-.64a3.29,3.29,0,0,1,.83-3.48C229.76,296.14,230,296,230.08,296.09Z" style="fill:#ff9a6c"></path><path d="M231.61,296.09c0,.15-.42.2-.87.29s-.83.2-.91.07.25-.47.81-.58S231.64,296,231.61,296.09Z" style="fill:#ff9a6c"></path><path d="M229,292.87c.07.13-.26.44-.42.94s-.12.93-.25,1-.49-.47-.24-1.16S229,292.73,229,292.87Z" style="fill:#ff9a6c"></path><path d="M212.11,304.52s-.26-.18-.38-.69a2,2,0,0,1,.76-2l0,.3a3.68,3.68,0,0,1-1.13-2.41,3.84,3.84,0,0,1,1.06-3l-.07.26-.06-.21a4.89,4.89,0,0,1,0-3.57,2.18,2.18,0,0,1,2.58-1.21l-.24.17a3.68,3.68,0,0,1,.49-1.78c.23-.37.41-.53.43-.51a5.47,5.47,0,0,0-.56,2.29v.26l-.24-.09a1.82,1.82,0,0,0-2,1.09,4.58,4.58,0,0,0,.09,3.21l.06.2,0,.15-.11.11a3.56,3.56,0,0,0,0,4.8l.17.17-.2.13a1.75,1.75,0,0,0-.76,1.64A7,7,0,0,0,212.11,304.52Z" style="fill:#ff9a6c"></path><path d="M199.49,288.75c0-.06.4-.38,1.18-.77a7.8,7.8,0,0,1,3.31-.88,13.7,13.7,0,0,1,3.38.47,3.89,3.89,0,0,1,1.33.43c0,.08-.55,0-1.4-.07a21.55,21.55,0,0,0-3.29-.3,9.65,9.65,0,0,0-3.18.68A4.78,4.78,0,0,1,199.49,288.75Z" style="fill:#ff9a6c"></path><path d="M305.94,258.27c.41,2,11.34,34,11.6,36.53s-1.44,9.74-6.79,10.32c-5,.53-44.16,1.24-44.16,1.24l.16-8.36,31.41-7.59-9.52-22.22Z" style="fill:#ffbf9d"></path><path d="M305.92,295.05a10,10,0,0,0-8.22-4.59,2.93,2.93,0,0,1,1.48-.18,8,8,0,0,1,6.12,3.41A3,3,0,0,1,305.92,295.05Z" style="fill:#ff9a6c"></path><path d="M244.39,305.53a1.42,1.42,0,0,1-1-2.23,57.38,57.38,0,0,1,4.25-5.62c.71-.47,6.53-2.28,7.08-2.44s9.77,1.88,12.68,2.27l5.78-.79.51,7.41s-6.69,1.42-8.18.95a5.54,5.54,0,0,1-2.36-1.5l-4.18-.79L254,304s-3.94,1.57-4.65,1.65a1.8,1.8,0,0,1-1.26-.4A12,12,0,0,1,244.39,305.53Z" style="fill:#ffbf9d"></path><path d="M333.64,308.27H170.11V460.8a3.3,3.3,0,0,0,6.6,0V331.37H328.87V460.8a3.3,3.3,0,0,0,6.6,0V308.27Z" style="fill:#e0e0e0"></path><path d="M333.64,308.27h1.84c0,4.27.06,36,.15,87.38,0,12.85,0,26.93,0,42.11,0,7.6.06,15.42,0,23.6a3.5,3.5,0,0,1-6.89.07,10.9,10.9,0,0,1-.06-1.6v-1.57c0-4.18,0-8.44,0-12.75,0-34.49,0-72.88,0-114.14l.24.25H176.71l.26-.26v4.75c0,27.48,0,54.39,0,80.49v43.25c0,.4,0,.77,0,1.2a4,4,0,0,1-.31,1.22,3.55,3.55,0,0,1-1.75,1.75,3.59,3.59,0,0,1-2.46.18,3.54,3.54,0,0,1-2-1.45,3.85,3.85,0,0,1-.59-2.36V439.68c0-48.54,0-92.95,0-131.41v-.2h.2l119.44.09,32.66.06,8.52,0,2.91,0-2.91,0-8.52,0-32.66.06-119.44.08.2-.2c0,38.46,0,82.87,0,131.41q0,9.1,0,18.39v2.33a3.3,3.3,0,0,0,.5,2.08,3.05,3.05,0,0,0,5.32-.41,4.85,4.85,0,0,0,.28-2.21v-4.72q0-18.93,0-38.53v-85.5h.26l152.16,0h.25v.24c0,41.26,0,79.65,0,114.14,0,4.31,0,8.57,0,12.75v1.57a10.72,10.72,0,0,0,.05,1.52,3.1,3.1,0,0,0,6.11-.05c.09-8.06,0-16,.06-23.54,0-15.18,0-29.26,0-42.11.08-51.38.13-83.11.14-87.38v0Z" style="fill:#263238"></path><rect x="160.61" y="304.91" width="181.65" height="5.66" rx="2.83" style="fill:#455a64"></rect><rect x="215.42" y="304.09" width="66.84" height="1.64" style="fill:#fff"></rect></g></svg>
